<?xml version="1.0" encoding="utf-8"?>
<!-- Generator: Adobe Illustrator 16.0.2, SVG Export Plug-In . SVG Version: 6.00 Build 0)  -->
<!DOCTYPE svg PUBLIC "-//W3C//DTD SVG 1.1//EN" "http://www.w3.org/Graphics/SVG/1.1/DTD/svg11.dtd">
<svg version="1.1" id="Слой_1" xmlns="http://www.w3.org/2000/svg" xmlns:xlink="http://www.w3.org/1999/xlink" x="0px" y="0px"
	 width="168.691px" height="41.018px" viewBox="219.09 428.23 168.691 41.018"
	 enable-background="new 219.09 428.23 168.691 41.018" xml:space="preserve">
<path fill="#7e7e7e" d="M274.139,444.472l-1.758,1.928l-0.652-0.369l-0.567-0.254l-0.453-0.143l-0.341-0.057l-0.226,0.029
	l-0.227,0.057l-0.198,0.113l-0.171,0.141l-0.141,0.199l-0.114,0.199l-0.056,0.227l-0.029,0.254l0.029,0.229l0.085,0.254l0.141,0.227
	l0.199,0.199l0.227,0.197l0.311,0.199l0.369,0.197l0.397,0.17l0.595,0.285l0.539,0.254l0.453,0.256l0.369,0.227l0.312,0.227
	l0.311,0.313l0.255,0.311l0.227,0.369l0.199,0.398l0.141,0.424l0.085,0.453l0.029,0.455l-0.029,0.424l-0.056,0.396l-0.114,0.398
	l-0.141,0.367l-0.199,0.369l-0.227,0.34l-0.283,0.34l-0.312,0.313l-0.34,0.313l-0.369,0.254l-0.396,0.199l-0.369,0.17l-0.425,0.141
	l-0.425,0.086l-0.907,0.084l-0.511-0.027l-0.51-0.086l-0.51-0.141l-0.51-0.227l-0.511-0.256l-0.481-0.34l-0.511-0.369l-0.482-0.453
	l1.843-2.211l0.624,0.566l0.595,0.426l0.567,0.254l0.567,0.086l0.255-0.027l0.255-0.086l0.255-0.143l0.227-0.197l0.198-0.256
	l0.17-0.227l0.085-0.254l0.029-0.256l-0.029-0.256l-0.113-0.227l-0.17-0.227l-0.227-0.227l-0.312-0.227l-0.368-0.229l-0.454-0.225
	l-0.51-0.199l-0.567-0.227l-0.482-0.199l-0.397-0.227l-0.311-0.197l-0.256-0.229l-0.226-0.254l-0.227-0.313l-0.199-0.34
	l-0.141-0.396l-0.114-0.369l-0.056-0.396l-0.029-0.396l0.057-0.85l0.227-0.738l0.34-0.68l0.51-0.596l0.312-0.256l0.312-0.227
	l0.708-0.34l0.794-0.197l0.879-0.057l0.538,0.027l0.511,0.057l0.482,0.113l0.481,0.143l0.426,0.197l0.425,0.227l0.425,0.285
	L274.139,444.472z M274.139,444.472L274.139,444.472z M276.094,449.859l0.029-0.709l0.085-0.682l0.142-0.65l0.226-0.623l0.255-0.598
	l0.341-0.537l0.397-0.539l0.453-0.482l0.482-0.453l0.51-0.369l0.539-0.34l0.567-0.254l0.567-0.229l0.595-0.141l0.624-0.084
	l0.651-0.029l0.709,0.029l0.709,0.084l0.652,0.141l0.623,0.229l0.567,0.254l0.567,0.34l0.539,0.369l0.482,0.453l0.453,0.482
	l0.369,0.539l0.34,0.566l0.255,0.596l0.227,0.623l0.142,0.652l0.085,0.68l0.028,0.709l-0.028,0.709l-0.085,0.682l-0.142,0.65
	l-0.199,0.623l-0.283,0.568l-0.312,0.566l-0.397,0.539l-0.425,0.482l-0.482,0.453l-0.538,0.396l-0.539,0.313l-0.595,0.283
	l-0.596,0.197l-0.652,0.17l-0.651,0.086l-0.709,0.027l-0.709-0.027l-0.68-0.086l-0.624-0.17l-0.595-0.197l-0.595-0.256l-0.539-0.34
	l-0.51-0.369l-0.482-0.453l-0.425-0.482l-0.397-0.539l-0.312-0.566l-0.255-0.596l-0.198-0.623l-0.142-0.65l-0.085-0.709
	L276.094,449.859z M276.094,449.859L276.094,449.859z M282.699,445.748l-0.765,0.057l-0.709,0.227l-0.34,0.172l-0.312,0.197
	l-0.283,0.256l-0.255,0.283l-0.426,0.623l-0.311,0.709l-0.199,0.795l-0.056,0.877l0.056,0.822l0.199,0.766l0.311,0.68l0.454,0.625
	l0.255,0.283l0.284,0.254l0.311,0.199l0.312,0.17l0.681,0.227l0.765,0.057l0.794-0.057l0.708-0.227l0.312-0.17l0.312-0.199
	l0.283-0.227l0.255-0.283l0.454-0.623l0.312-0.709l0.198-0.793l0.057-0.879l-0.057-0.879l-0.17-0.766l-0.312-0.68l-0.453-0.596
	l-0.255-0.283l-0.284-0.229l-0.312-0.197l-0.311-0.17l-0.709-0.227L282.699,445.748z M282.699,445.748L282.699,445.748z
	 M291.742,443.283h2.806v10.346h3.856v2.834h-6.662V443.283z M291.742,443.283L291.742,443.283z M304.951,443.283h2.211l5.357,13.18
	h-2.861l-1.049-2.58h-5.047l-1.02,2.58h-2.836L304.951,443.283z M304.951,443.283L304.951,443.283z M306.056,447.619l-1.529,3.855
	h3.117L306.056,447.619z M306.056,447.619L306.056,447.619z M314.447,443.283h4.338l0.936,0.057l0.822,0.197l0.736,0.34l0.313,0.199
	l0.311,0.256l0.283,0.254l0.229,0.313l0.197,0.311l0.17,0.342l0.113,0.367l0.086,0.398l0.057,0.396l0.029,0.453l-0.029,0.51
	l-0.113,0.51l-0.17,0.539l-0.227,0.539l-0.313,0.51l-0.426,0.453l-0.566,0.398l-0.652,0.34l3.686,5.498h-3.23l-3.432-5.102h-0.311
	v5.102h-2.836V443.283z M314.447,443.283L314.447,443.283z M317.283,445.607v3.459h0.623l0.539-0.029l0.453-0.086l0.367-0.143
	l0.313-0.197l0.256-0.254l0.17-0.313l0.113-0.369l0.027-0.426l-0.027-0.34l-0.113-0.34l-0.199-0.283l-0.254-0.227l-0.313-0.199
	l-0.369-0.141l-0.424-0.086l-0.512-0.027H317.283z M317.283,445.607L317.283,445.607z M337.011,446.117l-1.898,1.814l-0.313-0.482
	l-0.34-0.424l-0.369-0.342l-0.426-0.311l-0.424-0.229l-0.455-0.141l-0.48-0.113l-0.455-0.029l-0.736,0.086l-0.709,0.227
	l-0.623,0.369l-0.596,0.51l-0.51,0.623l-0.369,0.652l-0.197,0.738l-0.086,0.764l0.086,0.795l0.197,0.764l0.369,0.682l0.51,0.623
	l0.596,0.51l0.652,0.396l0.707,0.199l0.768,0.084l0.424-0.027l0.426-0.086l0.424-0.141l0.398-0.199l0.396-0.283l0.34-0.367
	l0.283-0.455l0.283-0.566h-3.117v-2.551h6.066v1.701l-0.057,0.68l-0.17,0.68l-0.283,0.738l-0.398,0.736l-0.48,0.709l-0.568,0.623
	l-0.623,0.482l-0.709,0.396l-0.736,0.313l-0.736,0.197l-0.738,0.143l-0.736,0.027l-0.68-0.027l-0.625-0.086l-0.623-0.17
	l-0.568-0.197l-0.566-0.283l-0.537-0.34l-0.51-0.398l-0.482-0.453l-0.455-0.51l-0.367-0.539l-0.34-0.568l-0.256-0.594l-0.227-0.652
	l-0.143-0.652l-0.084-0.68l-0.029-0.709l0.029-0.68l0.084-0.652l0.17-0.623l0.199-0.623l0.283-0.568l0.34-0.566l0.398-0.51
	l0.451-0.512l0.482-0.453l0.512-0.396l0.537-0.34l0.568-0.256l0.594-0.227l0.625-0.143l0.623-0.084l0.68-0.027l0.852,0.057
	l0.793,0.141l0.736,0.227l0.682,0.313l0.65,0.426l0.598,0.51l0.537,0.623L337.011,446.117z M337.011,446.117L337.011,446.117z
	 M339.902,443.283h4.309l0.936,0.057l0.852,0.197l0.367,0.143l0.369,0.197l0.313,0.199l0.311,0.256l0.256,0.254l0.256,0.313
	l0.197,0.311l0.143,0.342l0.113,0.367l0.113,0.398l0.027,0.396l0.029,0.453l-0.029,0.51l-0.113,0.51l-0.17,0.539l-0.227,0.539
	l-0.313,0.51l-0.424,0.453l-0.539,0.398l-0.652,0.34l3.686,5.498h-3.26l-3.402-5.102h-0.34v5.102h-2.807V443.283z M339.902,443.283
	L339.902,443.283z M342.708,445.607v3.459h0.623l0.539-0.029l0.453-0.086l0.369-0.143l0.313-0.197l0.254-0.254l0.17-0.313
	l0.113-0.369l0.029-0.426l-0.029-0.34l-0.113-0.34l-0.17-0.283l-0.254-0.227l-0.313-0.199l-0.396-0.141l-0.426-0.086l-0.482-0.027
	H342.708z M342.708,445.607L342.708,445.607z M350.617,449.859l0.029-0.709l0.086-0.682l0.17-0.65l0.197-0.623l0.283-0.598
	l0.313-0.537l0.396-0.539l0.453-0.482l0.482-0.453l0.51-0.369l0.539-0.34l0.566-0.254l0.596-0.229l0.596-0.141l0.623-0.084
	l0.652-0.029l0.709,0.029l0.68,0.084l0.652,0.141l0.623,0.229l0.596,0.254l0.539,0.34l0.539,0.369l0.48,0.453l0.453,0.482
	l0.398,0.539l0.311,0.566l0.283,0.596l0.199,0.623l0.17,0.652l0.086,0.68l0.027,0.709l-0.027,0.709l-0.086,0.682l-0.17,0.65
	l-0.199,0.623l-0.254,0.568l-0.34,0.566l-0.369,0.539l-0.453,0.482l-0.482,0.453l-0.51,0.396l-0.566,0.313l-0.568,0.283
	l-0.623,0.197l-0.623,0.17l-0.682,0.086l-0.707,0.027l-0.709-0.027l-0.652-0.086l-0.652-0.17l-0.596-0.197l-0.566-0.256l-0.539-0.34
	l-0.51-0.369l-0.482-0.453l-0.426-0.482l-0.396-0.539l-0.313-0.566l-0.254-0.596l-0.227-0.623l-0.141-0.65l-0.086-0.709
	L350.617,449.859z M350.617,449.859L350.617,449.859z M357.25,445.748l-0.793,0.057l-0.369,0.113l-0.34,0.113l-0.313,0.172
	l-0.311,0.197l-0.283,0.256l-0.256,0.283l-0.453,0.623l-0.313,0.709l-0.197,0.795l-0.057,0.877l0.057,0.822l0.197,0.766l0.342,0.68
	l0.453,0.625l0.254,0.283l0.285,0.254l0.311,0.199l0.313,0.17l0.68,0.227l0.766,0.057l0.766-0.057l0.709-0.227l0.34-0.17
	l0.311-0.199l0.285-0.227l0.254-0.283l0.453-0.623l0.313-0.709l0.197-0.793l0.059-0.879l-0.059-0.879l-0.197-0.766l-0.313-0.68
	l-0.424-0.596l-0.256-0.283l-0.283-0.229l-0.623-0.367l-0.709-0.227L357.25,445.748z M357.25,445.748L357.25,445.748z
	 M366.208,443.283h2.777v8.049l0.027,0.539l0.115,0.482l0.197,0.426l0.283,0.367l0.342,0.313l0.395,0.227l0.428,0.113l0.48,0.057
	l0.539-0.057l0.482-0.141l0.424-0.229l0.369-0.311l0.283-0.369l0.199-0.453l0.113-0.51l0.027-0.596v-7.908h2.807v8.531l-0.029,0.566
	l-0.111,0.568l-0.199,0.594l-0.256,0.625l-0.34,0.566l-0.396,0.482l-0.482,0.424l-0.566,0.369l-0.623,0.283l-0.652,0.199
	l-0.68,0.113l-0.738,0.027l-0.65-0.027l-0.625-0.057l-0.566-0.113l-0.51-0.17l-0.455-0.199l-0.424-0.283l-0.398-0.283l-0.34-0.369
	l-0.537-0.766l-0.398-0.766l-0.227-0.82l-0.084-0.822V443.283z M366.208,443.283L366.208,443.283z M379.277,443.283h4.477
	l0.879,0.057l0.766,0.197l0.682,0.34l0.594,0.455l0.482,0.566l0.34,0.68l0.227,0.738l0.059,0.82l-0.029,0.568l-0.113,0.539
	l-0.17,0.537l-0.227,0.51l-0.313,0.482l-0.369,0.426l-0.453,0.34l-0.51,0.283l-0.539,0.227l-0.482,0.17l-0.453,0.086l-0.396,0.027
	l-1.645,0.057v5.074h-2.805V443.283z M379.277,443.283L379.277,443.283z M382.054,445.664v3.373h1.076l0.34-0.029l0.313-0.084
	l0.311-0.17l0.256-0.227l0.199-0.256l0.17-0.283l0.084-0.313l0.029-0.34l-0.029-0.396l-0.111-0.342l-0.172-0.281l-0.254-0.256
	l-0.313-0.199l-0.369-0.141l-0.424-0.086l-0.482-0.027L382.054,445.664z M223.398,435.855l0.341,2.297l0.425,2.238l0.482,2.211
	l0.623,2.184l0.312,0.992l0.34,1.049l0.766,2.125l0.396,1.049l0.426,0.992l0.425,0.936l0.453,0.822l-0.085-0.623l-0.113-0.568
	l-0.198-1.02l-0.199-0.906l-0.17-0.879l-0.113-0.965l-0.057-0.51l-0.028-0.566v-0.625l0.028-0.68l0.028-0.736l0.057-0.852
	l0.142-1.275l0.17-1.162l0.255-1.076l0.255-1.021l0.652-2.012l0.34-1.021l0.369-1.105l-0.794,0.256l-0.765,0.367l-1.389,0.766
	l-0.369,0.086l-0.397-0.029l-0.425-0.084l-0.453-0.143l-0.908-0.311l-0.425-0.143L223.398,435.855z M222.293,460.261l1.134,0.227
	l1.077,0.199l2.126,0.34l2.126,0.313l1.162,0.113l1.191,0.084l0.397,0.029l0.481,0.027h0.511l0.567,0.029l1.218,0.027l1.276,0.029
	l1.247-0.029l1.163-0.057l0.538-0.057l0.454-0.057l0.396-0.086l0.341-0.084l-1.021-0.141l-0.964-0.143l-0.935-0.199l-0.907-0.197
	l-0.851-0.199l-0.793-0.227l-1.503-0.51l-1.332-0.512l-1.219-0.566l-1.077-0.566l-0.964-0.596l-0.822-0.566l-0.765-0.539
	l-0.652-0.539l-0.567-0.48l-0.482-0.398l-0.425-0.34l-0.369-0.283l-0.34-0.17v0.143l0.029,0.17l0.028,0.453l0.057,0.539l0.085,0.596
	l0.056,0.537l0.029,0.512l0.028,0.367v0.143v0.084l-0.113,0.283l-0.17,0.285l-0.256,0.311l-0.255,0.342l-0.567,0.65l-0.198,0.369
	L222.293,460.261z M256.309,454.421l0.34-0.367l0.255-0.342l0.227-0.311l0.141-0.283l0.256-0.51l0.17-0.426l0.17-0.369l0.312-0.313
	l0.198-0.141l0.255-0.143l0.34-0.141l0.425-0.113l0.908-0.227l0.425-0.143l0.368-0.17l-1.332-1.672l-1.928-1.957l-2.041-1.898
	l-2.126-1.785l-1.077-0.852l-1.105-0.793l-0.397-0.285l-0.454-0.311l-0.992-0.709l-1.049-0.652l-0.481-0.283l-0.426-0.197
	l0.709,0.65l0.68,0.682l1.219,1.303l1.049,1.305l0.935,1.275l0.766,1.248l0.652,1.219l0.567,1.162l0.453,1.076l0.369,1.021
	l0.283,0.963l0.227,0.852l0.198,0.764l0.142,0.652l0.142,0.539l0.113,0.396L256.309,454.421z M239.953,436.337l1.247,0.113
	l1.247,0.17l1.219,0.227l1.191,0.254l1.19,0.285l1.134,0.367l1.077,0.398l1.049,0.48l0.822,0.398l0.737,0.367l0.68,0.369
	l0.567,0.367l0.539,0.313l0.482,0.34l0.425,0.285l0.397,0.283l0.652,0.537l0.567,0.482l0.538,0.398l0.567,0.367l-0.028-0.34
	l-0.057-0.482l-0.085-0.537l-0.085-0.598l-0.056-0.537l-0.086-0.512l-0.028-0.367v-0.143v-0.084l0.085-0.227l0.17-0.283l0.227-0.34
	l0.283-0.369l0.567-0.766l0.227-0.34l0.142-0.285l-2.211-0.396l-2.239-0.311l-2.268-0.199l-2.296-0.143h-0.425l-0.482-0.027h-1.106
	l-1.19,0.027l-1.219,0.029l-1.219,0.057l-1.162,0.086l-0.511,0.057l-0.482,0.057l-0.425,0.084L239.953,436.337z M219.09,447.931
	l0.595,0.736l0.709,0.766l0.793,0.793l0.822,0.793l0.851,0.768l0.85,0.736l0.794,0.68l0.737,0.625l0.312,0.254l0.368,0.313
	l0.425,0.313l0.454,0.34l0.964,0.736l1.049,0.736l1.048,0.709l1.021,0.652l0.482,0.283l0.453,0.256l0.426,0.197l0.368,0.17
	l-0.283-0.283l-0.312-0.311l-0.737-0.682l-0.822-0.793l-0.426-0.453l-0.453-0.482l-0.85-1.049l-0.766-1.049l-0.68-1.02l-0.595-1.021
	l-0.511-0.992l-0.453-0.936l-0.397-0.936l-0.312-0.85l-0.312-0.822l-0.226-0.736l-0.199-0.652l-0.17-0.596l-0.142-0.482
	l-0.113-0.426l-0.113-0.283l-0.085-0.17l-0.482,0.682l-0.397,0.709l-0.34,0.707l-0.369,0.682l-0.255,0.283l-0.34,0.199l-0.425,0.141
	l-0.454,0.113l-0.453,0.113l-0.397,0.143l-0.369,0.17L219.09,447.931z M240.321,466.072l0.142,0.113l0.17,0.086l0.425,0.143
	l0.425,0.084l0.397,0.057l0.199,0.029l0.227,0.027l0.595,0.086l0.567,0.084l0.226,0.057l0.142,0.057l0.17,0.143l0.227,0.254
	l0.227,0.342l0.255,0.367l0.482,0.738l0.227,0.311l0.226,0.199l0.17-0.199l0.199-0.283l0.198-0.34l0.255-0.426l0.227-0.482
	l0.284-0.51l0.538-1.133l0.51-1.162l0.482-1.078l0.227-0.51l0.199-0.453l0.141-0.396l0.142-0.313l0.369-0.965l0.368-1.047
	l0.709-2.211l0.623-2.27l0.227-1.105l0.199-1.076l-0.114,0.17l-0.142,0.199l-0.283,0.566l-0.284,0.596l-0.255,0.51l-0.708,1.275
	l-0.709,1.162l-0.765,1.076l-0.822,1.021l-0.851,0.963l-0.907,0.936l-0.964,0.908l-1.048,0.906l-0.851,0.652l-0.879,0.596
	l-0.878,0.594L240.321,466.072z M250.101,462.841l0.765-0.313l0.709-0.313l1.389-0.68l0.368-0.084h0.397l0.425,0.084l0.454,0.143
	l0.879,0.34l0.425,0.17l0.425,0.113v-0.709l-0.057-0.766l-0.085-0.822l-0.113-0.822l-0.312-1.729l-0.397-1.785l-0.453-1.787
	l-0.482-1.699l-0.482-1.615l-0.227-0.738l-0.227-0.68l-0.396-1.021l-0.426-0.992l-0.425-0.963l-0.368-0.908l0.085,0.652l0.085,0.568
	l0.17,1.049l0.17,0.963l0.142,0.908l0.085,0.992l0.028,0.51v0.594l-0.028,0.625l-0.029,0.709l-0.085,0.793l-0.085,0.852
	l-0.113,0.764l-0.114,0.795l-0.368,1.672l-0.454,1.615l-0.255,0.795l-0.283,0.736l-0.085,0.197l-0.114,0.256l-0.226,0.539
	l-0.199,0.566l-0.085,0.227L250.101,462.841z M232.838,438.492l1.445-0.766l1.333-0.652l1.304-0.594l1.304-0.512l1.36-0.426
	l1.446-0.34l0.765-0.17l0.794-0.113l0.85-0.113l0.907-0.086l1.361-0.055h1.389l2.835,0.113l-0.114-0.199l-0.198-0.256l-0.255-0.34
	l-0.284-0.34l-0.311-0.34l-0.284-0.313l-0.255-0.254l-0.199-0.17l-0.283-0.285l-0.17-0.311l-0.085-0.313l-0.028-0.34l0.028-0.426
	l0.028-0.48l0.029-0.625v-0.736l-0.17,0.027l-0.199,0.029l-0.51,0.17l-0.624,0.256l-0.68,0.311l-0.765,0.426l-0.851,0.453
	l-0.85,0.482l-0.879,0.539l-1.786,1.104l-0.85,0.568l-0.794,0.539l-0.737,0.51l-0.68,0.453l-0.567,0.426l-0.454,0.34l-0.226,0.17
	l-0.199,0.143l-0.425,0.283L232.838,438.492z M229.72,462.556l1.786,2.299l0.198,0.17l0.142,0.141l0.198,0.227l0.028,0.143v0.17
	v0.254l-0.028,0.369l-0.085,1.078v0.537l0.057,0.512l2.012-0.908l1.021-0.426l1.02-0.482l1.191-0.623l1.105-0.623l1.049-0.596
	l1.021-0.623l1.984-1.275l1.02-0.709l1.049-0.766l2.551-2.125l-1.729,0.85l-1.701,0.795l-0.907,0.367l-0.963,0.34l-1.049,0.313
	l-1.106,0.254l-0.935,0.17l-0.822,0.143l-0.709,0.113l-0.68,0.086l-0.595,0.057l-0.539,0.029h-0.992l-0.964-0.059l-0.992-0.084
	l-0.567-0.029l-0.624-0.027l-0.68-0.029L229.72,462.556z M228.161,444.642l0.028-0.113l0.057-0.197l0.085-0.199l0.113-0.283
	l0.284-0.596l0.34-0.652l0.368-0.68l0.34-0.596l0.142-0.254l0.113-0.229l0.114-0.17l0.085-0.141l0.794-1.135l0.793-1.049
	l0.794-0.963l0.794-0.852l0.793-0.766l0.766-0.68l0.765-0.623l0.709-0.539l0.68-0.48l0.624-0.428l0.567-0.367l0.51-0.34l0.425-0.283
	l0.34-0.227l0.255-0.227l0.17-0.17l-0.085-0.029l-0.17-0.029l-0.198-0.027l-0.227-0.057l-0.538-0.113l-0.624-0.143l-0.595-0.141
	l-0.511-0.113l-0.226-0.057l-0.142-0.029l-0.113-0.029l-0.057-0.027l-0.142-0.113l-0.17-0.254l-0.227-0.342l-0.255-0.367
	l-0.51-0.766l-0.199-0.313l-0.198-0.227l-0.17,0.143l-0.198,0.283l-0.256,0.34l-0.255,0.424l-0.283,0.482l-0.284,0.566l-0.623,1.191
	l-0.596,1.219l-0.538,1.162l-0.255,0.539l-0.199,0.453l-0.17,0.396l-0.141,0.313l-0.142,0.34l-0.17,0.426l-0.17,0.51l-0.227,0.539
	l-0.425,1.246l-0.454,1.332l-0.425,1.334l-0.198,0.652l-0.142,0.594l-0.142,0.596l-0.113,0.51l-0.057,0.455L228.161,444.642z"/>
</svg>
