<?xml version="1.0" encoding="UTF-8"?>
<svg width="243px" height="58px" viewBox="0 0 243 58" version="1.1" xmlns="http://www.w3.org/2000/svg" xmlns:xlink="http://www.w3.org/1999/xlink">
<path d="M78.529593,15.5621222 C78.414891,15.7447961 78.2944556,15.8817994 78.1682834,15.9731363 C78.0421112,16.0644733 77.8796191,16.110141 77.6808023,16.110141 C77.5049258,16.110141 77.3156703,16.0549591 77.1130301,15.9445937 C76.9103898,15.8342282 76.6809892,15.7105447 76.4248214,15.5735393 C76.1686535,15.4365339 75.8761678,15.3128503 75.5473553,15.2024849 C75.2185428,15.0921194 74.8438552,15.0369375 74.4232811,15.0369375 C73.696835,15.0369375 73.1558319,15.1910663 72.8002556,15.4993284 C72.4446794,15.8075905 72.2668939,16.224309 72.2668939,16.7494963 C72.2668939,17.0843984 72.3739475,17.3622107 72.5880579,17.5829416 C72.8021684,17.8036725 73.0831841,17.9939549 73.4311136,18.1537945 C73.7790431,18.3136341 74.1766708,18.4601516 74.6240087,18.5933512 C75.0713465,18.7265509 75.5282361,18.8749712 75.994691,19.0386165 C76.4611459,19.2022618 76.9180354,19.3944471 77.3653733,19.615178 C77.8127112,19.8359089 78.2103389,20.1175268 78.5582683,20.4600403 C78.9061978,20.8025538 79.1872135,21.2192722 79.401324,21.7102082 C79.6154344,22.2011442 79.722488,22.7929224 79.722488,23.4855608 C79.722488,24.2543132 79.588671,24.9735807 79.321033,25.6433848 C79.0533949,26.3131889 78.6653256,26.8973559 78.1568133,27.3959033 C77.648301,27.8944507 77.0212727,28.2864324 76.2757095,28.5718603 C75.5301464,28.8572882 74.6832758,29 73.7350724,29 C73.2150899,29 72.6855569,28.9467209 72.1464574,28.8401612 C71.6073579,28.7336014 71.0854715,28.5832783 70.5807826,28.3891874 C70.0760937,28.1950964 69.6019991,27.9648547 69.1584846,27.6984553 C68.7149701,27.432056 68.3288125,27.1352154 68,26.8079248 L69.1470145,25.0040296 C69.2387761,24.8746356 69.3592114,24.7661746 69.508324,24.6786434 C69.6574367,24.5911122 69.8199288,24.5473472 69.9958052,24.5473472 C70.2252092,24.5473472 70.4565215,24.6196545 70.689749,24.7642713 C70.9229764,24.9088881 71.1867871,25.0687253 71.481189,25.2437878 C71.7755908,25.4188502 72.1139567,25.5786874 72.4962968,25.7233042 C72.8786369,25.867921 73.3297914,25.9402283 73.8497739,25.9402283 C74.5532796,25.9402283 75.1000177,25.7860996 75.4900046,25.4778375 C75.8799915,25.1695754 76.074982,24.6805496 76.074982,24.0107455 C76.074982,23.6225635 75.9679284,23.3066947 75.7538179,23.0631296 C75.5397075,22.8195645 75.2586917,22.6178651 74.9107623,22.4580255 C74.5628328,22.2981859 74.1671168,22.1573769 73.7236023,22.0355944 C73.2800878,21.9138118 72.8251099,21.7787113 72.358655,21.6302888 C71.8922002,21.4818663 71.4372223,21.2991952 70.9937078,21.08227 C70.5501933,20.8653448 70.1544773,20.5799212 69.8065478,20.2259906 C69.4586183,19.87206 69.1776026,19.4306048 68.9634922,18.9016118 C68.7493817,18.3726188 68.6423281,17.7199502 68.6423281,16.9435863 C68.6423281,16.3194507 68.7684984,15.710547 69.0208429,15.116857 C69.2731873,14.5231669 69.6440516,13.9941819 70.1334469,13.5298858 C70.6228422,13.0655898 71.2231071,12.6945391 71.9342597,12.4167226 C72.6454122,12.1389062 73.4597844,12 74.3774005,12 C74.8897362,12 75.3886825,12.0399593 75.8742544,12.1198791 C76.3598263,12.1997989 76.8205392,12.317774 77.2564069,12.4738079 C77.6922746,12.6298418 78.0994606,12.8163186 78.4779773,13.0332438 C78.856494,13.250169 79.1948599,13.4956333 79.4930851,13.7696441 L78.529593,15.5621222 Z M98.407354,20.4942915 C98.407354,21.6968943 98.1989818,22.8157548 97.7822311,23.8509066 C97.3654804,24.8860585 96.7785972,25.7860942 96.0215639,26.551041 C95.2645305,27.3159877 94.3526631,27.9153773 93.2859343,28.3492277 C92.2192055,28.7830781 91.0358807,29 89.7359245,29 C88.4359682,29 87.2507318,28.7830781 86.1801796,28.3492277 C85.1096274,27.9153773 84.1939366,27.3159877 83.4330799,26.551041 C82.6722232,25.7860942 82.0834283,24.8860585 81.6666776,23.8509066 C81.2499269,22.8157548 81.0415547,21.6968943 81.0415547,20.4942915 C81.0415547,19.2916886 81.2499269,18.1728281 81.6666776,17.1376763 C82.0834283,16.1025245 82.6722232,15.2043915 83.4330799,14.4432505 C84.1939366,13.6821095 85.1096274,13.0846227 86.1801796,12.6507723 C87.2507318,12.2169219 88.4359682,12 89.7359245,12 C91.0358807,12 92.2192055,12.2188248 93.2859343,12.6564809 C94.3526631,13.094137 95.2645305,13.6935265 96.0215639,14.4546676 C96.7785972,15.2158086 97.3654804,16.1139415 97.7822311,17.1490934 C98.1989818,18.1842452 98.407354,19.2993 98.407354,20.4942915 Z M94.4386839,20.4942915 C94.4386839,19.6722592 94.3316303,18.9320606 94.1175198,18.2736736 C93.9034094,17.6152866 93.5956302,17.0577592 93.1941732,16.6010745 C92.7927161,16.1443899 92.3014165,15.7942703 91.7202596,15.5507052 C91.1391026,15.30714 90.4776642,15.1853593 89.7359245,15.1853593 C88.9865379,15.1853593 88.3193645,15.30714 87.7343842,15.5507052 C87.1494039,15.7942703 86.6561926,16.1443899 86.2547355,16.6010745 C85.8532785,17.0577592 85.5454993,17.6152866 85.3313889,18.2736736 C85.1172784,18.9320606 85.0102248,19.6722592 85.0102248,20.4942915 C85.0102248,21.3239352 85.1172784,22.0679394 85.3313889,22.7263264 C85.5454993,23.3847134 85.8532785,23.9422408 86.2547355,24.3989255 C86.6561926,24.8556101 87.1494039,25.2038269 87.7343842,25.4435863 C88.3193645,25.6833457 88.9865379,25.8032236 89.7359245,25.8032236 C90.4776642,25.8032236 91.1391026,25.6833457 91.7202596,25.4435863 C92.3014165,25.2038269 92.7927161,24.8556101 93.1941732,24.3989255 C93.5956302,23.9422408 93.9034094,23.3847134 94.1175198,22.7263264 C94.3316303,22.0679394 94.4386839,21.3239352 94.4386839,20.4942915 Z M104.566822,25.7347213 L110.7607,25.7347213 L110.7607,28.8173271 L100.689913,28.8173271 L100.689913,12.1826729 L104.566822,12.1826729 L104.566822,25.7347213 Z M127.725044,28.8173271 L124.719866,28.8173271 C124.383407,28.8173271 124.11195,28.7393113 123.905486,28.5832774 C123.699022,28.4272435 123.542265,28.2274469 123.43521,27.9838818 L122.448778,25.083949 L116.094317,25.083949 L115.107885,27.9838818 C115.02377,28.1970013 114.872748,28.3891865 114.654814,28.5604433 C114.43688,28.7317 114.167335,28.8173271 113.846169,28.8173271 L110.818051,28.8173271 L117.287212,12.1826729 L121.255883,12.1826729 L127.725044,28.8173271 Z M116.988989,22.4580255 L121.554106,22.4580255 L120.017107,17.9026192 C119.902405,17.6133856 119.780058,17.2727801 119.650062,16.8807925 C119.520067,16.4888048 119.390073,16.0644751 119.260077,15.6077905 C119.137729,16.0720865 119.01347,16.5021247 118.887298,16.8979181 C118.761125,17.2937114 118.64069,17.6362197 118.525988,17.9254533 L116.988989,22.4580255 Z M132.92102,22.6635326 L132.92102,28.8173271 L129.044111,28.8173271 L129.044111,12.1826729 L134.48096,12.1826729 C135.689154,12.1826729 136.719545,12.3063565 137.572164,12.5537273 C138.424782,12.8010982 139.12063,13.1455093 139.65973,13.5869711 C140.198829,14.0284329 140.590722,14.5498067 140.83542,15.1511081 C141.080117,15.7524095 141.202464,16.406981 141.202464,17.1148422 C141.202464,17.6552523 141.129821,18.1652092 140.984532,18.644728 C140.839242,19.1242469 140.623224,19.5676049 140.336469,19.9748153 C140.049713,20.3820258 139.697966,20.7454652 139.281215,21.0651444 C138.864464,21.3848236 138.384635,21.6474133 137.841712,21.8529214 C138.101703,21.9823154 138.342574,22.1440554 138.564331,22.3381464 C138.786088,22.5322374 138.984902,22.7624791 139.160779,23.0288784 L142.716524,28.8173271 L139.206659,28.8173271 C138.556681,28.8173271 138.090233,28.5737656 137.807302,28.0866353 L135.031527,23.2572196 C134.901531,23.0517115 134.756244,22.9013884 134.595661,22.8062458 C134.435078,22.7111032 134.205678,22.6635326 133.907452,22.6635326 L132.92102,22.6635326 Z M132.92102,20.003358 L134.48096,20.003358 C135.008589,20.003358 135.457832,19.9367591 135.828702,19.8035594 C136.199571,19.6703598 136.503527,19.4857858 136.740578,19.2498321 C136.977629,19.0138784 137.149679,18.7379689 137.256735,18.4220954 C137.36379,18.1062218 137.417317,17.7656163 137.417317,17.4002686 C137.417317,16.6695732 137.178358,16.098726 136.700433,15.6877099 C136.222507,15.2766937 135.482691,15.0711887 134.48096,15.0711887 L132.92102,15.0711887 L132.92102,20.003358 Z M152.672609,21.2135662 C152.825545,21.5027997 152.972744,21.8034459 153.11421,22.1155138 C153.255676,22.4275816 153.391404,22.747256 153.5214,23.0745467 C153.651396,22.7396446 153.787124,22.4123589 153.92859,22.0926797 C154.070056,21.7730004 154.221078,21.4685486 154.381661,21.179315 L158.671495,12.77636 C158.747963,12.6317432 158.826342,12.5194766 158.906633,12.4395567 C158.986924,12.3596369 159.076773,12.3006494 159.176181,12.2625923 C159.27559,12.2245353 159.388378,12.2017014 159.514551,12.19409 C159.640723,12.1864786 159.787922,12.1826729 159.956151,12.1826729 L162.915449,12.1826729 L162.915449,28.8173271 L159.497345,28.8173271 L159.497345,19.2498321 C159.497345,18.7855361 159.520286,18.2831905 159.566166,17.7427804 L155.13869,26.2941572 C155.001048,26.5605565 154.815616,26.7622559 154.582388,26.8992612 C154.349161,27.0362666 154.083439,27.1047683 153.785213,27.1047683 L153.257587,27.1047683 C152.959361,27.1047683 152.693639,27.0362666 152.460412,26.8992612 C152.227184,26.7622559 152.041752,26.5605565 151.90411,26.2941572 L147.453693,17.7313633 C147.484281,17.9977627 147.507221,18.2622552 147.522514,18.5248489 C147.537808,18.7874425 147.545455,19.0291012 147.545455,19.2498321 L147.545455,28.8173271 L144.127351,28.8173271 L144.127351,12.1826729 L147.086649,12.1826729 C147.254878,12.1826729 147.402077,12.1864786 147.528249,12.19409 C147.654422,12.2017014 147.76721,12.2245353 147.866619,12.2625923 C147.966027,12.3006494 148.055876,12.3596369 148.136167,12.4395567 C148.216458,12.5194766 148.294837,12.6317432 148.371305,12.77636 L152.672609,21.2135662 Z M182.552337,20.4942915 C182.552337,21.6968943 182.343964,22.8157548 181.927214,23.8509066 C181.510463,24.8860585 180.92358,25.7860942 180.166547,26.551041 C179.409513,27.3159877 178.497646,27.9153773 177.430917,28.3492277 C176.364188,28.7830781 175.180863,29 173.880907,29 C172.580951,29 171.395714,28.7830781 170.325162,28.3492277 C169.25461,27.9153773 168.338919,27.3159877 167.578063,26.551041 C166.817206,25.7860942 166.228411,24.8860585 165.81166,23.8509066 C165.39491,22.8157548 165.186537,21.6968943 165.186537,20.4942915 C165.186537,19.2916886 165.39491,18.1728281 165.81166,17.1376763 C166.228411,16.1025245 166.817206,15.2043915 167.578063,14.4432505 C168.338919,13.6821095 169.25461,13.0846227 170.325162,12.6507723 C171.395714,12.2169219 172.580951,12 173.880907,12 C175.180863,12 176.364188,12.2188248 177.430917,12.6564809 C178.497646,13.094137 179.409513,13.6935265 180.166547,14.4546676 C180.92358,15.2158086 181.510463,16.1139415 181.927214,17.1490934 C182.343964,18.1842452 182.552337,19.2993 182.552337,20.4942915 Z M178.583667,20.4942915 C178.583667,19.6722592 178.476613,18.9320606 178.262502,18.2736736 C178.048392,17.6152866 177.740613,17.0577592 177.339156,16.6010745 C176.937699,16.1443899 176.446399,15.7942703 175.865242,15.5507052 C175.284085,15.30714 174.622647,15.1853593 173.880907,15.1853593 C173.131521,15.1853593 172.464347,15.30714 171.879367,15.5507052 C171.294387,15.7942703 170.801175,16.1443899 170.399718,16.6010745 C169.998261,17.0577592 169.690482,17.6152866 169.476372,18.2736736 C169.262261,18.9320606 169.155207,19.6722592 169.155207,20.4942915 C169.155207,21.3239352 169.262261,22.0679394 169.476372,22.7263264 C169.690482,23.3847134 169.998261,23.9422408 170.399718,24.3989255 C170.801175,24.8556101 171.294387,25.2038269 171.879367,25.4435863 C172.464347,25.6833457 173.131521,25.8032236 173.880907,25.8032236 C174.622647,25.8032236 175.284085,25.6833457 175.865242,25.4435863 C176.446399,25.2038269 176.937699,24.8556101 177.339156,24.3989255 C177.740613,23.9422408 178.048392,23.3847134 178.262502,22.7263264 C178.476613,22.0679394 178.583667,21.3239352 178.583667,20.4942915 Z M196.844137,12.1826729 L196.844137,15.2424446 L192.141378,15.2424446 L192.141378,28.8173271 L188.264469,28.8173271 L188.264469,15.2424446 L183.561709,15.2424446 L183.561709,12.1826729 L196.844137,12.1826729 Z M215.207839,20.4942915 C215.207839,21.6968943 214.999467,22.8157548 214.582716,23.8509066 C214.165965,24.8860585 213.579082,25.7860942 212.822049,26.551041 C212.065016,27.3159877 211.153148,27.9153773 210.086419,28.3492277 C209.019691,28.7830781 207.836366,29 206.53641,29 C205.236453,29 204.051217,28.7830781 202.980665,28.3492277 C201.910112,27.9153773 200.994422,27.3159877 200.233565,26.551041 C199.472708,25.7860942 198.883913,24.8860585 198.467163,23.8509066 C198.050412,22.8157548 197.84204,21.6968943 197.84204,20.4942915 C197.84204,19.2916886 198.050412,18.1728281 198.467163,17.1376763 C198.883913,16.1025245 199.472708,15.2043915 200.233565,14.4432505 C200.994422,13.6821095 201.910112,13.0846227 202.980665,12.6507723 C204.051217,12.2169219 205.236453,12 206.53641,12 C207.836366,12 209.019691,12.2188248 210.086419,12.6564809 C211.153148,13.094137 212.065016,13.6935265 212.822049,14.4546676 C213.579082,15.2158086 214.165965,16.1139415 214.582716,17.1490934 C214.999467,18.1842452 215.207839,19.2993 215.207839,20.4942915 Z M211.239169,20.4942915 C211.239169,19.6722592 211.132115,18.9320606 210.918005,18.2736736 C210.703894,17.6152866 210.396115,17.0577592 209.994658,16.6010745 C209.593201,16.1443899 209.101901,15.7942703 208.520745,15.5507052 C207.939588,15.30714 207.278149,15.1853593 206.53641,15.1853593 C205.787023,15.1853593 205.11985,15.30714 204.534869,15.5507052 C203.949889,15.7942703 203.456678,16.1443899 203.055221,16.6010745 C202.653763,17.0577592 202.345984,17.6152866 202.131874,18.2736736 C201.917763,18.9320606 201.81071,19.6722592 201.81071,20.4942915 C201.81071,21.3239352 201.917763,22.0679394 202.131874,22.7263264 C202.345984,23.3847134 202.653763,23.9422408 203.055221,24.3989255 C203.456678,24.8556101 203.949889,25.2038269 204.534869,25.4435863 C205.11985,25.6833457 205.787023,25.8032236 206.53641,25.8032236 C207.278149,25.8032236 207.939588,25.6833457 208.520745,25.4435863 C209.101901,25.2038269 209.593201,24.8556101 209.994658,24.3989255 C210.396115,23.9422408 210.703894,23.3847134 210.918005,22.7263264 C211.132115,22.0679394 211.239169,21.3239352 211.239169,20.4942915 Z M221.367307,22.6635326 L221.367307,28.8173271 L217.490398,28.8173271 L217.490398,12.1826729 L222.927247,12.1826729 C224.135441,12.1826729 225.165832,12.3063565 226.018451,12.5537273 C226.871069,12.8010982 227.566917,13.1455093 228.106017,13.5869711 C228.645116,14.0284329 229.037009,14.5498067 229.281707,15.1511081 C229.526404,15.7524095 229.648751,16.406981 229.648751,17.1148422 C229.648751,17.6552523 229.576108,18.1652092 229.430819,18.644728 C229.285529,19.1242469 229.069511,19.5676049 228.782755,19.9748153 C228.496,20.3820258 228.144253,20.7454652 227.727502,21.0651444 C227.310751,21.3848236 226.830922,21.6474133 226.287999,21.8529214 C226.54799,21.9823154 226.788861,22.1440554 227.010618,22.3381464 C227.232375,22.5322374 227.431189,22.7624791 227.607066,23.0288784 L231.162811,28.8173271 L227.652946,28.8173271 C227.002968,28.8173271 226.53652,28.5737656 226.253589,28.0866353 L223.477813,23.2572196 C223.347818,23.0517115 223.202531,22.9013884 223.041948,22.8062458 C222.881365,22.7111032 222.651965,22.6635326 222.353739,22.6635326 L221.367307,22.6635326 Z M221.367307,20.003358 L222.927247,20.003358 C223.454876,20.003358 223.904119,19.9367591 224.274989,19.8035594 C224.645858,19.6703598 224.949814,19.4857858 225.186865,19.2498321 C225.423916,19.0138784 225.595966,18.7379689 225.703022,18.4220954 C225.810077,18.1062218 225.863604,17.7656163 225.863604,17.4002686 C225.863604,16.6695732 225.624645,16.098726 225.14672,15.6877099 C224.668794,15.2766937 223.928978,15.0711887 222.927247,15.0711887 L221.367307,15.0711887 L221.367307,20.003358 Z M241.807105,15.5621222 C241.692403,15.7447961 241.571968,15.8817994 241.445795,15.9731363 C241.319623,16.0644733 241.157131,16.110141 240.958314,16.110141 C240.782438,16.110141 240.593182,16.0549591 240.390542,15.9445937 C240.187902,15.8342282 239.958501,15.7105447 239.702333,15.5735393 C239.446166,15.4365339 239.15368,15.3128503 238.824867,15.2024849 C238.496055,15.0921194 238.121367,15.0369375 237.700793,15.0369375 C236.974347,15.0369375 236.433344,15.1910663 236.077768,15.4993284 C235.722191,15.8075905 235.544406,16.224309 235.544406,16.7494963 C235.544406,17.0843984 235.651459,17.3622107 235.86557,17.5829416 C236.07968,17.8036725 236.360696,17.9939549 236.708626,18.1537945 C237.056555,18.3136341 237.454183,18.4601516 237.901521,18.5933512 C238.348858,18.7265509 238.805748,18.8749712 239.272203,19.0386165 C239.738658,19.2022618 240.195547,19.3944471 240.642885,19.615178 C241.090223,19.8359089 241.487851,20.1175268 241.83578,20.4600403 C242.18371,20.8025538 242.464726,21.2192722 242.678836,21.7102082 C242.892946,22.2011442 243,22.7929224 243,23.4855608 C243,24.2543132 242.866183,24.9735807 242.598545,25.6433848 C242.330907,26.3131889 241.942838,26.8973559 241.434325,27.3959033 C240.925813,27.8944507 240.298785,28.2864324 239.553221,28.5718603 C238.807658,28.8572882 237.960788,29 237.012584,29 C236.492602,29 235.963069,28.9467209 235.423969,28.8401612 C234.88487,28.7336014 234.362983,28.5832783 233.858295,28.3891874 C233.353606,28.1950964 232.879511,27.9648547 232.435997,27.6984553 C231.992482,27.432056 231.606324,27.1352154 231.277512,26.8079248 L232.424526,25.0040296 C232.516288,24.8746356 232.636723,24.7661746 232.785836,24.6786434 C232.934949,24.5911122 233.097441,24.5473472 233.273317,24.5473472 C233.502721,24.5473472 233.734033,24.6196545 233.967261,24.7642713 C234.200488,24.9088881 234.464299,25.0687253 234.758701,25.2437878 C235.053103,25.4188502 235.391469,25.5786874 235.773809,25.7233042 C236.156149,25.867921 236.607303,25.9402283 237.127286,25.9402283 C237.830792,25.9402283 238.37753,25.7860996 238.767517,25.4778375 C239.157503,25.1695754 239.352494,24.6805496 239.352494,24.0107455 C239.352494,23.6225635 239.24544,23.3066947 239.03133,23.0631296 C238.817219,22.8195645 238.536204,22.6178651 238.188274,22.4580255 C237.840345,22.2981859 237.444629,22.1573769 237.001114,22.0355944 C236.5576,21.9138118 236.102622,21.7787113 235.636167,21.6302888 C235.169712,21.4818663 234.714734,21.2991952 234.27122,21.08227 C233.827705,20.8653448 233.431989,20.5799212 233.08406,20.2259906 C232.73613,19.87206 232.455115,19.4306048 232.241004,18.9016118 C232.026894,18.3726188 231.91984,17.7199502 231.91984,16.9435863 C231.91984,16.3194507 232.04601,15.710547 232.298355,15.116857 C232.550699,14.5231669 232.921564,13.9941819 233.410959,13.5298858 C233.900354,13.0655898 234.500619,12.6945391 235.211772,12.4167226 C235.922924,12.1389062 236.737296,12 237.654912,12 C238.167248,12 238.666195,12.0399593 239.151766,12.1198791 C239.637338,12.1997989 240.098051,12.317774 240.533919,12.4738079 C240.969787,12.6298418 241.376973,12.8163186 241.755489,13.0332438 C242.134006,13.250169 242.472372,13.4956333 242.770597,13.7696441 L241.807105,15.5621222 Z" id="SOLARMOTORS" fill="#D8362A"></path>

<path d="M74.3828522,39.4391892 C74.4518563,39.3310805 74.5404103,39.2308563 74.6485168,39.1385135 C74.7566233,39.0461707 74.8796789,39 75.0176872,39 L76.0803458,39 L76.0803458,48.6959459 L74.651967,48.6959459 L74.651967,41.9527027 C74.651967,41.7545035 74.6565672,41.5461723 74.6657678,41.3277027 C74.6749683,41.1092331 74.6979694,40.8761274 74.7347716,40.6283784 C74.6519666,40.8445957 74.5645626,41.0427919 74.4725571,41.222973 C74.3805516,41.4031541 74.2908475,41.5653146 74.2034423,41.7094595 L69.6974937,48.2567568 C69.6330898,48.3648654 69.5456858,48.4650896 69.4352792,48.5574324 C69.3248725,48.6497752 69.2006669,48.6959459 69.0626586,48.6959459 L68,48.6959459 L68,39 L69.4283788,39 L69.4283788,45.7432432 C69.4283788,45.9414424 69.4237786,46.1475215 69.414578,46.3614865 C69.4053775,46.5754515 69.3846766,46.8040528 69.3524746,47.0472973 C69.4306793,46.8355845 69.5169332,46.6407667 69.6112389,46.4628378 C69.7055446,46.284909 69.7963987,46.1261268 69.8838039,45.9864865 L74.3828522,39.4391892 Z M84.1537912,41.8378378 L84.1537912,48.6959459 L82.8427189,48.6959459 L82.8427189,45.5202703 L79.5857392,45.5202703 L79.5857392,48.6959459 L78.2746669,48.6959459 L78.2746669,41.8378378 L79.5857392,41.8378378 L79.5857392,44.5472973 L82.8427189,44.5472973 L82.8427189,41.8378378 L84.1537912,41.8378378 Z M88.5079315,44.3243243 C88.7057434,44.6261276 88.9886562,44.777027 89.3566783,44.777027 L89.9432107,44.777027 L89.9432107,41.8378378 L91.2128807,41.8378378 L91.2128807,44.777027 L91.7718115,44.777027 C92.1536345,44.777027 92.4434476,44.6261276 92.6412595,44.3243243 L94.0765387,42.1891892 C94.1363423,42.0810805 94.219146,41.9954958 94.3249524,41.9324324 C94.4307588,41.8693691 94.5434639,41.8378378 94.6630711,41.8378378 L95.6912278,41.8378378 L93.9040292,44.4391892 C93.7936225,44.6103612 93.6774673,44.7488733 93.55556,44.8547297 C93.4336526,44.9605861 93.2852959,45.0427925 93.1104854,45.1013514 C93.335899,45.1599102 93.5245075,45.2511255 93.6763166,45.375 C93.8281258,45.4988745 93.9638319,45.6599089 94.0834391,45.8581081 L95.8844385,48.6959459 L94.9804886,48.6959459 C94.7458745,48.6959459 94.5664664,48.6610364 94.4422589,48.5912162 C94.3180514,48.521396 94.2191469,48.4076584 94.1455425,48.25 L92.8413706,46.1554054 C92.7355642,45.9842334 92.6021582,45.8547302 92.4411485,45.7668919 C92.2801388,45.6790536 92.0961305,45.6351351 91.889118,45.6351351 L91.2128807,45.6351351 L91.2128807,48.7027027 L89.9432107,48.7027027 L89.9432107,45.6351351 L89.2669734,45.6351351 C88.8437479,45.6351351 88.5240334,45.8085568 88.3078204,46.1554054 L87.0036485,48.25 C86.930044,48.4076584 86.8322896,48.521396 86.7103823,48.5912162 C86.588475,48.6610364 86.4102169,48.6959459 86.1756028,48.6959459 L85.2647525,48.6959459 L87.0726523,45.8581081 C87.1922595,45.6599089 87.3268156,45.4988745 87.4763246,45.375 C87.6258336,45.2511255 87.813292,45.1599102 88.0387056,45.1013514 C87.8638951,45.0427925 87.7155384,44.9605861 87.593631,44.8547297 C87.4717237,44.7488733 87.3578685,44.6103612 87.2520622,44.4391892 L85.4579632,41.8378378 L86.4861199,41.8378378 C86.6103274,41.8378378 86.7241825,41.8693691 86.8276888,41.9324324 C86.931195,41.9954958 87.0128487,42.0810805 87.0726523,42.1891892 L88.5079315,44.3243243 Z M97.0023001,48.7027027 L97.0023001,41.8445946 L98.3133725,41.8445946 L98.3133725,46.3851351 C98.3133725,46.4752257 98.3087723,46.5731977 98.2995717,46.6790541 C98.2903711,46.7849104 98.2788706,46.8896391 98.2650698,46.9932432 C98.3478748,46.8175667 98.4329786,46.6621628 98.5203839,46.527027 C98.5249842,46.518018 98.5767365,46.4481989 98.6756424,46.3175676 C98.7745484,46.1869363 98.9010541,46.0191452 99.0551634,45.8141892 C99.2092727,45.6092332 99.3840806,45.3761274 99.5795923,45.1148649 C99.7751041,44.8536023 99.9740631,44.5878392 100.176475,44.3175676 C100.654904,43.6824293 101.195428,42.963968 101.798065,42.1621622 C101.848668,42.0855852 101.914221,42.0123877 101.994726,41.9425676 C102.07523,41.8727474 102.166085,41.8378378 102.267291,41.8378378 L103.060834,41.8378378 L103.060834,48.6959459 L101.749762,48.6959459 L101.749762,44.1554054 C101.749762,44.0653149 101.754362,43.9673429 101.763563,43.8614865 C101.772763,43.7556301 101.784264,43.6509014 101.798065,43.5472973 C101.756662,43.6373878 101.71411,43.7207203 101.670408,43.7972973 C101.626705,43.8738743 101.584153,43.9436934 101.542751,44.0067568 C101.53355,44.0157658 101.480648,44.0855849 101.384042,44.2162162 C101.287436,44.3468475 101.16093,44.5157647 101.004521,44.722973 C100.848112,44.9301812 100.672154,45.1644131 100.476642,45.4256757 C100.28113,45.6869382 100.082171,45.9527014 99.8797589,46.222973 C99.4013301,46.8581113 98.8631058,47.5765726 98.2650698,48.3783784 C98.2144668,48.4549553 98.1489138,48.5281528 98.0684089,48.597973 C97.9879041,48.6677931 97.89705,48.7027027 97.7958439,48.7027027 L97.0023001,48.7027027 Z M110.844464,41.8378378 L110.844464,48.6959459 L109.533391,48.6959459 L109.533391,45.5202703 L106.276412,45.5202703 L106.276412,48.6959459 L104.965339,48.6959459 L104.965339,41.8378378 L106.276412,41.8378378 L106.276412,44.5472973 L109.533391,44.5472973 L109.533391,41.8378378 L110.844464,41.8378378 Z M112.748969,48.7027027 L112.748969,41.8445946 L114.060041,41.8445946 L114.060041,46.3851351 C114.060041,46.4752257 114.055441,46.5731977 114.04624,46.6790541 C114.03704,46.7849104 114.025539,46.8896391 114.011739,46.9932432 C114.094544,46.8175667 114.179647,46.6621628 114.267053,46.527027 C114.271653,46.518018 114.323405,46.4481989 114.422311,46.3175676 C114.521217,46.1869363 114.647723,46.0191452 114.801832,45.8141892 C114.955941,45.6092332 115.130749,45.3761274 115.326261,45.1148649 C115.521773,44.8536023 115.720732,44.5878392 115.923144,44.3175676 C116.401573,43.6824293 116.942097,42.963968 117.544734,42.1621622 C117.595337,42.0855852 117.66089,42.0123877 117.741394,41.9425676 C117.821899,41.8727474 117.912753,41.8378378 118.013959,41.8378378 L118.807503,41.8378378 L118.807503,48.6959459 L117.496431,48.6959459 L117.496431,44.1554054 C117.496431,44.0653149 117.501031,43.9673429 117.510232,43.8614865 C117.519432,43.7556301 117.530933,43.6509014 117.544734,43.5472973 C117.503331,43.6373878 117.460779,43.7207203 117.417076,43.7972973 C117.373374,43.8738743 117.330822,43.9436934 117.289419,44.0067568 C117.280219,44.0157658 117.227316,44.0855849 117.130711,44.2162162 C117.034105,44.3468475 116.907599,44.5157647 116.75119,44.722973 C116.59478,44.9301812 116.418822,45.1644131 116.223311,45.4256757 C116.027799,45.6869382 115.82884,45.9527014 115.626428,46.222973 C115.147999,46.8581113 114.609775,47.5765726 114.011739,48.3783784 C113.961136,48.4549553 113.895583,48.5281528 113.815078,48.597973 C113.734573,48.6677931 113.643719,48.7027027 113.542513,48.7027027 L112.748969,48.7027027 Z M120.712008,51 L120.712008,41.8378378 L121.498652,41.8378378 C121.682663,41.8378378 121.797668,41.9234226 121.843671,42.0945946 L121.954077,42.8783784 C122.248494,42.5315298 122.58776,42.2511272 122.971883,42.0371622 C123.356006,41.8231971 123.796476,41.7162162 124.293306,41.7162162 C124.69353,41.7162162 125.055796,41.7916659 125.380116,41.9425676 C125.704435,42.0934692 125.982748,42.3175661 126.215062,42.6148649 C126.447376,42.9121636 126.625634,43.278151 126.749841,43.7128378 C126.874049,44.1475247 126.936152,44.6486458 126.936152,45.2162162 C126.936152,45.7252278 126.867149,46.1970699 126.72914,46.6317568 C126.591132,47.0664436 126.391023,47.4436921 126.128807,47.7635135 C125.866591,48.0833349 125.549177,48.3344585 125.176555,48.5168919 C124.803932,48.6993252 124.383013,48.7905405 123.913785,48.7905405 C123.485959,48.7905405 123.122543,48.7229736 122.823525,48.5878378 C122.524507,48.452702 122.257695,48.2590103 122.023081,48.0067568 L122.023081,51 L120.712008,51 Z M123.865482,42.75 C123.469858,42.75 123.125993,42.8367108 122.833875,43.0101351 C122.541758,43.1835594 122.271496,43.4301786 122.023081,43.75 L122.023081,47.027027 C122.243894,47.3108122 122.484255,47.5101346 122.74417,47.625 C123.004086,47.7398654 123.295049,47.7972973 123.617069,47.7972973 C124.247306,47.7972973 124.732628,47.5765788 125.073049,47.1351351 C125.413469,46.6936915 125.583677,46.0540582 125.583677,45.2162162 C125.583677,44.7792771 125.544575,44.405407 125.466371,44.0945946 C125.388166,43.7837822 125.275461,43.5281542 125.128252,43.3277027 C124.981043,43.1272513 124.801635,42.9808563 124.590022,42.8885135 C124.378409,42.7961707 124.136899,42.75 123.865482,42.75 Z M128.461136,48.7027027 L128.461136,41.8445946 L129.772208,41.8445946 L129.772208,46.3851351 C129.772208,46.4752257 129.767608,46.5731977 129.758407,46.6790541 C129.749207,46.7849104 129.737706,46.8896391 129.723905,46.9932432 C129.80671,46.8175667 129.891814,46.6621628 129.97922,46.527027 C129.98382,46.518018 130.035572,46.4481989 130.134478,46.3175676 C130.233384,46.1869363 130.35989,46.0191452 130.513999,45.8141892 C130.668108,45.6092332 130.842916,45.3761274 131.038428,45.1148649 C131.23394,44.8536023 131.432899,44.5878392 131.635311,44.3175676 C132.11374,43.6824293 132.654264,42.963968 133.2569,42.1621622 C133.307503,42.0855852 133.373056,42.0123877 133.453561,41.9425676 C133.534066,41.8727474 133.62492,41.8378378 133.726126,41.8378378 L134.51967,41.8378378 L134.51967,48.6959459 L133.208598,48.6959459 L133.208598,44.1554054 C133.208598,44.0653149 133.213198,43.9673429 133.222398,43.8614865 C133.231599,43.7556301 133.2431,43.6509014 133.2569,43.5472973 C133.215498,43.6373878 133.172946,43.7207203 133.129243,43.7972973 C133.085541,43.8738743 133.042989,43.9436934 133.001586,44.0067568 C132.992386,44.0157658 132.939483,44.0855849 132.842878,44.2162162 C132.746272,44.3468475 132.619766,44.5157647 132.463357,44.722973 C132.306947,44.9301812 132.130989,45.1644131 131.935477,45.4256757 C131.739966,45.6869382 131.541007,45.9527014 131.338595,46.222973 C130.860166,46.8581113 130.321941,47.5765726 129.723905,48.3783784 C129.673302,48.4549553 129.607749,48.5281528 129.527245,48.597973 C129.44674,48.6677931 129.355886,48.7027027 129.25468,48.7027027 L128.461136,48.7027027 Z M142.303299,41.8378378 L142.303299,48.6959459 L140.992227,48.6959459 L140.992227,45.5202703 L137.735247,45.5202703 L137.735247,48.6959459 L136.424175,48.6959459 L136.424175,41.8378378 L137.735247,41.8378378 L137.735247,44.5472973 L140.992227,44.5472973 L140.992227,41.8378378 L142.303299,41.8378378 Z M148.782757,41.8378378 L148.782757,42.8108108 L145.518877,42.8108108 L145.518877,48.6959459 L144.207805,48.6959459 L144.207805,41.8378378 L148.782757,41.8378378 Z M152.902284,41.7297297 C153.417515,41.7297297 153.882136,41.8119361 154.296161,41.9763514 C154.710186,42.1407666 155.062102,42.3761246 155.351919,42.6824324 C155.641737,42.9887403 155.864847,43.3592321 156.021256,43.7939189 C156.177666,44.2286058 156.255869,44.7162135 156.255869,45.2567568 C156.255869,45.7973 156.177666,46.2860339 156.021256,46.722973 C155.864847,47.1599121 155.641737,47.53153 155.351919,47.8378378 C155.062102,48.1441457 154.710186,48.3795037 154.296161,48.5439189 C153.882136,48.7083342 153.417515,48.7905405 152.902284,48.7905405 C152.387053,48.7905405 151.921282,48.7083342 151.504957,48.5439189 C151.088632,48.3795037 150.734416,48.1441457 150.442299,47.8378378 C150.150181,47.53153 149.925921,47.1599121 149.769511,46.722973 C149.613102,46.2860339 149.534898,45.7973 149.534898,45.2567568 C149.534898,44.7162135 149.613102,44.2286058 149.769511,43.7939189 C149.925921,43.3592321 150.150181,42.9887403 150.442299,42.6824324 C150.734416,42.3761246 151.088632,42.1407666 151.504957,41.9763514 C151.921282,41.8119361 152.387053,41.7297297 152.902284,41.7297297 Z M152.902284,47.7905405 C153.573925,47.7905405 154.075347,47.569822 154.406567,47.1283784 C154.737787,46.6869347 154.903395,46.0653193 154.903395,45.2635135 C154.903395,44.4662122 154.737787,43.8445968 154.406567,43.3986486 C154.075347,42.9527005 153.573925,42.7297297 152.902284,42.7297297 C152.221443,42.7297297 151.71427,42.9527005 151.38075,43.3986486 C151.04723,43.8445968 150.880473,44.4662122 150.880473,45.2635135 C150.880473,46.0653193 151.04723,46.6869347 151.38075,47.1283784 C151.71427,47.569822 152.221443,47.7905405 152.902284,47.7905405 Z M157.767053,41.8378378 L160.368496,41.8378378 C160.800922,41.8378378 161.172389,41.8806302 161.482908,41.9662162 C161.793426,42.0518022 162.048738,42.1677921 162.24885,42.3141892 C162.448962,42.4605863 162.596169,42.6328819 162.690474,42.8310811 C162.78478,43.0292803 162.831932,43.2432421 162.831932,43.472973 C162.831932,43.6216224 162.811231,43.7770262 162.769829,43.9391892 C162.728426,44.1013522 162.655973,44.256756 162.552467,44.4054054 C162.44896,44.5540548 162.308654,44.6880625 162.131543,44.8074324 C161.954433,44.9268024 161.732473,45.0202699 161.465657,45.0878378 C161.990088,45.1779284 162.398357,45.3581068 162.690474,45.6283784 C162.982592,45.89865 163.128648,46.2567545 163.128648,46.7027027 C163.128648,47.0405422 163.059645,47.3333321 162.921637,47.5810811 C162.783629,47.8288301 162.59502,48.0360352 162.355806,48.2027027 C162.116591,48.3693702 161.837129,48.4932428 161.51741,48.5743243 C161.19769,48.6554058 160.856125,48.6959459 160.492703,48.6959459 L157.767053,48.6959459 L157.767053,41.8378378 Z M159.016022,45.6013514 L159.016022,47.7972973 L160.485803,47.7972973 C160.93203,47.7972973 161.282795,47.695947 161.538111,47.4932432 C161.793426,47.2905395 161.921082,47.0135153 161.921082,46.6621622 C161.921082,46.5090082 161.896931,46.3671178 161.848628,46.2364865 C161.800325,46.1058552 161.720971,45.9932437 161.610565,45.8986486 C161.500158,45.8040536 161.352951,45.7308561 161.16894,45.6790541 C160.984929,45.627252 160.759519,45.6013514 160.492703,45.6013514 L159.016022,45.6013514 Z M159.016022,44.7837838 L160.327094,44.7837838 C160.524906,44.7837838 160.706614,44.756757 160.872224,44.7027027 C161.037834,44.6486484 161.18044,44.5720726 161.300048,44.472973 C161.419655,44.3738734 161.512809,44.2556313 161.579513,44.1182432 C161.646217,43.9808552 161.679569,43.8288297 161.679569,43.6621622 C161.679569,43.5405399 161.656567,43.4222979 161.610565,43.3074324 C161.564562,43.192567 161.489809,43.0889644 161.386302,42.9966216 C161.282796,42.9042788 161.14364,42.8310814 160.968829,42.777027 C160.794019,42.7229727 160.580109,42.6959459 160.327094,42.6959459 L159.016022,42.6959459 L159.016022,44.7837838 Z M169.111279,48.6959459 C168.982471,48.6959459 168.883566,48.6756759 168.814562,48.6351351 C168.745558,48.5945944 168.690356,48.5157664 168.648953,48.3986486 L168.504045,47.7837838 C168.324634,47.9459468 168.147526,48.0912156 167.972716,48.2195946 C167.797905,48.3479736 167.615047,48.4549545 167.424135,48.5405405 C167.233224,48.6261266 167.029665,48.6914412 166.813452,48.7364865 C166.597239,48.7815318 166.355728,48.8040541 166.088912,48.8040541 C165.812895,48.8040541 165.555284,48.7668923 165.316069,48.6925676 C165.076855,48.6182429 164.868695,48.5045053 164.691585,48.3513514 C164.514474,48.1981974 164.374168,48.007884 164.270661,47.7804054 C164.167155,47.5529268 164.115403,47.2837853 164.115403,46.972973 C164.115403,46.7027014 164.190156,46.4436949 164.339665,46.1959459 C164.489174,45.948197 164.732985,45.7263523 165.071106,45.5304054 C165.409226,45.3344585 165.850846,45.1734241 166.395979,45.0472973 C166.941112,44.9211705 167.611592,44.8490992 168.40744,44.8310811 L168.40744,44.3175676 C168.40744,43.799547 168.293585,43.4087851 168.065871,43.1452703 C167.838157,42.8817554 167.503492,42.75 167.061865,42.75 C166.762847,42.75 166.513286,42.7871618 166.313174,42.8614865 C166.113062,42.9358112 165.940554,43.0168915 165.795646,43.1047297 C165.650737,43.192568 165.523081,43.2725222 165.412674,43.3445946 C165.302268,43.416667 165.191863,43.4527027 165.081456,43.4527027 C164.989451,43.4527027 164.912397,43.4290543 164.850293,43.3817568 C164.78819,43.3344592 164.734137,43.2792796 164.688135,43.2162162 L164.453522,42.7972973 C164.844545,42.4369351 165.266614,42.1666676 165.719741,41.9864865 C166.172869,41.8063054 166.673141,41.7162162 167.220574,41.7162162 C167.616198,41.7162162 167.968114,41.7792786 168.276332,41.9054054 C168.584551,42.0315322 168.843313,42.2083322 169.052625,42.4358108 C169.261938,42.6632894 169.420645,42.9369353 169.528752,43.2567568 C169.636858,43.5765782 169.690911,43.9301782 169.690911,44.3175676 L169.690911,48.6959459 L169.111279,48.6959459 Z M166.482234,47.9054054 C166.689246,47.9054054 166.881305,47.8851353 167.058415,47.8445946 C167.235526,47.8040539 167.401133,47.7454959 167.555243,47.6689189 C167.709352,47.592342 167.855409,47.4988744 167.993417,47.3885135 C168.131425,47.2781526 168.269431,47.1531539 168.40744,47.0135135 L168.40744,45.6351351 C167.855407,45.6531532 167.386185,45.6959456 166.999762,45.7635135 C166.613339,45.8310814 166.299375,45.9189184 166.05786,46.027027 C165.816346,46.1351357 165.640388,46.2646389 165.529981,46.4155405 C165.419574,46.5664422 165.364372,46.7319811 165.364372,46.9121622 C165.364372,47.0878387 165.393123,47.2387381 165.450627,47.3648649 C165.50813,47.4909916 165.587484,47.5934681 165.68869,47.6722973 C165.789896,47.7511265 165.908351,47.8096845 166.044059,47.847973 C166.179767,47.8862615 166.325824,47.9054054 166.482234,47.9054054 Z M176.446383,48.6959459 L175.197414,48.6959459 L175.197414,45.8310811 L174.700587,45.8310811 C174.571779,45.8310811 174.463674,45.8412161 174.376269,45.8614865 C174.288864,45.8817569 174.21411,45.9110358 174.152007,45.9493243 C174.089903,45.9876128 174.03585,46.0360357 173.989848,46.0945946 C173.943845,46.1531534 173.895543,46.2184681 173.84494,46.2905405 L172.382059,48.25 C172.299254,48.3986494 172.198049,48.5101348 172.078442,48.5844595 C171.958835,48.6587842 171.784027,48.6959459 171.554013,48.6959459 L170.650063,48.6959459 L172.637373,46.1351351 C172.798383,45.860359 173.021493,45.6734239 173.30671,45.5743243 C172.961689,45.5292791 172.668426,45.4481988 172.426911,45.3310811 C172.185397,45.2139634 171.988738,45.0743251 171.836929,44.9121622 C171.68512,44.7499992 171.574715,44.5731992 171.505711,44.3817568 C171.436707,44.1903144 171.402205,43.9954965 171.402205,43.7972973 C171.402205,43.5585574 171.450507,43.3220732 171.547113,43.0878378 C171.643719,42.8536024 171.796676,42.6441451 172.005988,42.4594595 C172.215301,42.2747739 172.486713,42.1250006 172.820233,42.0101351 C173.153753,41.8952697 173.557421,41.8378378 174.03125,41.8378378 L176.446383,41.8378378 L176.446383,48.6959459 Z M172.713277,43.8648649 C172.713277,44.225227 172.847833,44.5067557 173.11695,44.7094595 C173.386066,44.9121632 173.750632,45.0135135 174.21066,45.0135135 L175.197414,45.0135135 L175.197414,42.6959459 L174.065752,42.6959459 C173.808136,42.6959459 173.593077,42.7319816 173.420566,42.8040541 C173.248056,42.8761265 173.11005,42.9673418 173.006543,43.0777027 C172.903037,43.1880636 172.828284,43.3130624 172.782281,43.4527027 C172.736278,43.592343 172.713277,43.7297291 172.713277,43.8648649 Z M186.093115,42.1891892 C186.16212,42.0855851 186.252974,42.0011265 186.365681,41.9358108 C186.478387,41.8704952 186.596843,41.8378378 186.72105,41.8378378 L187.749207,41.8378378 L185.955108,44.4391892 C185.849302,44.6103612 185.735446,44.7488733 185.613539,44.8547297 C185.491632,44.9605861 185.343275,45.0427925 185.168464,45.1013514 C185.389278,45.1599102 185.575586,45.2511255 185.727395,45.375 C185.879204,45.4988745 186.014911,45.6599089 186.134518,45.8581081 L187.942418,48.6959459 L187.038468,48.6959459 C186.803854,48.6959459 186.622145,48.657658 186.493338,48.5810811 C186.36453,48.5045041 186.254125,48.3941449 186.162119,48.25 L184.857947,46.1554054 C184.752141,45.9842334 184.618735,45.8547302 184.457725,45.7668919 C184.296716,45.6790536 184.112707,45.6351351 183.905695,45.6351351 L183.167354,45.6351351 L183.167354,48.7027027 L181.856282,48.7027027 L181.856282,41.8378378 L183.167354,41.8378378 L183.167354,44.777027 L183.809089,44.777027 C184.002301,44.777027 184.167909,44.7387391 184.305917,44.6621622 C184.443925,44.5855852 184.56123,44.4729737 184.657836,44.3243243 L186.093115,42.1891892 Z M192.027443,41.7297297 C192.542674,41.7297297 193.007295,41.8119361 193.42132,41.9763514 C193.835345,42.1407666 194.187261,42.3761246 194.477078,42.6824324 C194.766895,42.9887403 194.990006,43.3592321 195.146415,43.7939189 C195.302824,44.2286058 195.381028,44.7162135 195.381028,45.2567568 C195.381028,45.7973 195.302824,46.2860339 195.146415,46.722973 C194.990006,47.1599121 194.766895,47.53153 194.477078,47.8378378 C194.187261,48.1441457 193.835345,48.3795037 193.42132,48.5439189 C193.007295,48.7083342 192.542674,48.7905405 192.027443,48.7905405 C191.512212,48.7905405 191.046441,48.7083342 190.630116,48.5439189 C190.213791,48.3795037 189.859575,48.1441457 189.567457,47.8378378 C189.27534,47.53153 189.051079,47.1599121 188.89467,46.722973 C188.738261,46.2860339 188.660057,45.7973 188.660057,45.2567568 C188.660057,44.7162135 188.738261,44.2286058 188.89467,43.7939189 C189.051079,43.3592321 189.27534,42.9887403 189.567457,42.6824324 C189.859575,42.3761246 190.213791,42.1407666 190.630116,41.9763514 C191.046441,41.8119361 191.512212,41.7297297 192.027443,41.7297297 Z M192.027443,47.7905405 C192.699083,47.7905405 193.200506,47.569822 193.531726,47.1283784 C193.862946,46.6869347 194.028553,46.0653193 194.028553,45.2635135 C194.028553,44.4662122 193.862946,43.8445968 193.531726,43.3986486 C193.200506,42.9527005 192.699083,42.7297297 192.027443,42.7297297 C191.346602,42.7297297 190.839429,42.9527005 190.505909,43.3986486 C190.172389,43.8445968 190.005631,44.4662122 190.005631,45.2635135 C190.005631,46.0653193 190.172389,46.6869347 190.505909,47.1283784 C190.839429,47.569822 191.346602,47.7905405 192.027443,47.7905405 Z M200.542513,45.5540541 C200.597716,45.6576582 200.650618,45.7691435 200.701221,45.8885135 C200.751824,46.0078835 200.797827,46.1261255 200.839229,46.2432432 C200.880632,46.1261255 200.926634,46.0078835 200.977237,45.8885135 C201.02784,45.7691435 201.080742,45.6576582 201.135945,45.5540541 L203.199159,42.1081081 C203.263563,41.9909904 203.339467,41.9132885 203.426872,41.875 C203.514277,41.8367115 203.603981,41.8175676 203.695987,41.8175676 L204.751745,41.8175676 L204.751745,48.6959459 L203.57178,48.6959459 L203.57178,44.2702703 C203.57178,44.139639 203.57983,43.9921179 203.595931,43.8277027 C203.612032,43.6632875 203.631583,43.511262 203.654584,43.3716216 L201.287754,47.4662162 C201.250952,47.5382886 201.200349,47.5957205 201.135945,47.6385135 C201.071542,47.6813065 200.997938,47.7027027 200.915133,47.7027027 L200.770225,47.7027027 C200.68742,47.7027027 200.613817,47.6813065 200.549413,47.6385135 C200.485009,47.5957205 200.432107,47.5382886 200.390704,47.4662162 L197.982471,43.3581081 C198.005473,43.502253 198.026174,43.6576568 198.044575,43.8243243 C198.062976,43.9909918 198.072176,44.139639 198.072176,44.2702703 L198.072176,48.6959459 L196.892211,48.6959459 L196.892211,41.8175676 L197.94797,41.8175676 C198.039975,41.8175676 198.130829,41.8367115 198.220535,41.875 C198.31024,41.9132885 198.387293,41.9909904 198.451697,42.1081081 L200.542513,45.5540541 Z M212.535374,41.8378378 L212.535374,48.6959459 L211.224302,48.6959459 L211.224302,42.8108108 L207.967322,42.8108108 L207.967322,48.6959459 L206.65625,48.6959459 L206.65625,41.8378378 L212.535374,41.8378378 Z M218.918227,48.6959459 C218.789419,48.6959459 218.690514,48.6756759 218.62151,48.6351351 C218.552506,48.5945944 218.497304,48.5157664 218.455901,48.3986486 L218.310993,47.7837838 C218.131582,47.9459468 217.954474,48.0912156 217.779664,48.2195946 C217.604853,48.3479736 217.421995,48.4549545 217.231083,48.5405405 C217.040172,48.6261266 216.836613,48.6914412 216.6204,48.7364865 C216.404187,48.7815318 216.162676,48.8040541 215.89586,48.8040541 C215.619843,48.8040541 215.362232,48.7668923 215.123017,48.6925676 C214.883803,48.6182429 214.675643,48.5045053 214.498533,48.3513514 C214.321422,48.1981974 214.181116,48.007884 214.077609,47.7804054 C213.974103,47.5529268 213.922351,47.2837853 213.922351,46.972973 C213.922351,46.7027014 213.997104,46.4436949 214.146613,46.1959459 C214.296122,45.948197 214.539933,45.7263523 214.878054,45.5304054 C215.216174,45.3344585 215.657794,45.1734241 216.202927,45.0472973 C216.74806,44.9211705 217.41854,44.8490992 218.214388,44.8310811 L218.214388,44.3175676 C218.214388,43.799547 218.100533,43.4087851 217.872819,43.1452703 C217.645105,42.8817554 217.31044,42.75 216.868813,42.75 C216.569795,42.75 216.320234,42.7871618 216.120122,42.8614865 C215.92001,42.9358112 215.747502,43.0168915 215.602594,43.1047297 C215.457685,43.192568 215.330029,43.2725222 215.219622,43.3445946 C215.109216,43.416667 214.998811,43.4527027 214.888404,43.4527027 C214.796399,43.4527027 214.719345,43.4290543 214.657241,43.3817568 C214.595138,43.3344592 214.541085,43.2792796 214.495082,43.2162162 L214.26047,42.7972973 C214.651493,42.4369351 215.073562,42.1666676 215.526689,41.9864865 C215.979817,41.8063054 216.480089,41.7162162 217.027522,41.7162162 C217.423146,41.7162162 217.775062,41.7792786 218.08328,41.9054054 C218.391499,42.0315322 218.650261,42.2083322 218.859573,42.4358108 C219.068886,42.6632894 219.227593,42.9369353 219.3357,43.2567568 C219.443806,43.5765782 219.497859,43.9301782 219.497859,44.3175676 L219.497859,48.6959459 L218.918227,48.6959459 Z M216.289181,47.9054054 C216.496194,47.9054054 216.688253,47.8851353 216.865363,47.8445946 C217.042474,47.8040539 217.208081,47.7454959 217.362191,47.6689189 C217.5163,47.592342 217.662357,47.4988744 217.800365,47.3885135 C217.938373,47.2781526 218.076379,47.1531539 218.214388,47.0135135 L218.214388,45.6351351 C217.662354,45.6531532 217.193133,45.6959456 216.80671,45.7635135 C216.420287,45.8310814 216.106323,45.9189184 215.864808,46.027027 C215.623294,46.1351357 215.447336,46.2646389 215.336929,46.4155405 C215.226522,46.5664422 215.17132,46.7319811 215.17132,46.9121622 C215.17132,47.0878387 215.200071,47.2387381 215.257575,47.3648649 C215.315078,47.4909916 215.394432,47.5934681 215.495638,47.6722973 C215.596844,47.7511265 215.715299,47.8096845 215.851007,47.847973 C215.986715,47.8862615 216.132772,47.9054054 216.289181,47.9054054 Z M227.205584,41.8378378 L227.205584,48.6959459 L225.894511,48.6959459 L225.894511,45.5202703 L222.637532,45.5202703 L222.637532,48.6959459 L221.326459,48.6959459 L221.326459,41.8378378 L222.637532,41.8378378 L222.637532,44.5472973 L225.894511,44.5472973 L225.894511,41.8378378 L227.205584,41.8378378 Z M229.110089,48.7027027 L229.110089,41.8445946 L230.421161,41.8445946 L230.421161,46.3851351 C230.421161,46.4752257 230.416561,46.5731977 230.40736,46.6790541 C230.39816,46.7849104 230.386659,46.8896391 230.372859,46.9932432 C230.455663,46.8175667 230.540767,46.6621628 230.628173,46.527027 C230.632773,46.518018 230.684525,46.4481989 230.783431,46.3175676 C230.882337,46.1869363 231.008843,46.0191452 231.162952,45.8141892 C231.317061,45.6092332 231.491869,45.3761274 231.687381,45.1148649 C231.882893,44.8536023 232.081852,44.5878392 232.284264,44.3175676 C232.762693,43.6824293 233.303217,42.963968 233.905853,42.1621622 C233.956456,42.0855852 234.022009,42.0123877 234.102514,41.9425676 C234.183019,41.8727474 234.273873,41.8378378 234.375079,41.8378378 L235.168623,41.8378378 L235.168623,48.6959459 L233.857551,48.6959459 L233.857551,44.1554054 C233.857551,44.0653149 233.862151,43.9673429 233.871352,43.8614865 C233.880552,43.7556301 233.892053,43.6509014 233.905853,43.5472973 C233.864451,43.6373878 233.821899,43.7207203 233.778196,43.7972973 C233.734494,43.8738743 233.691942,43.9436934 233.650539,44.0067568 C233.641339,44.0157658 233.588436,44.0855849 233.491831,44.2162162 C233.395225,44.3468475 233.268719,44.5157647 233.11231,44.722973 C232.9559,44.9301812 232.779942,45.1644131 232.584431,45.4256757 C232.388919,45.6869382 232.18996,45.9527014 231.987548,46.222973 C231.509119,46.8581113 230.970894,47.5765726 230.372859,48.3783784 C230.322255,48.4549553 230.256702,48.5281528 230.176198,48.597973 C230.095693,48.6677931 230.004839,48.7027027 229.903633,48.7027027 L229.110089,48.7027027 Z M242,48.6959459 L240.751031,48.6959459 L240.751031,45.8310811 L240.254204,45.8310811 C240.125396,45.8310811 240.017291,45.8412161 239.929886,45.8614865 C239.842481,45.8817569 239.767727,45.9110358 239.705623,45.9493243 C239.64352,45.9876128 239.589467,46.0360357 239.543464,46.0945946 C239.497462,46.1531534 239.44916,46.2184681 239.398556,46.2905405 L237.935676,48.25 C237.852871,48.3986494 237.751666,48.5101348 237.632059,48.5844595 C237.512452,48.6587842 237.337644,48.6959459 237.10763,48.6959459 L236.20368,48.6959459 L238.19099,46.1351351 C238.352,45.860359 238.57511,45.6734239 238.860327,45.5743243 C238.515306,45.5292791 238.222043,45.4481988 237.980528,45.3310811 C237.739014,45.2139634 237.542355,45.0743251 237.390546,44.9121622 C237.238737,44.7499992 237.128332,44.5731992 237.059327,44.3817568 C236.990323,44.1903144 236.955822,43.9954965 236.955822,43.7972973 C236.955822,43.5585574 237.004124,43.3220732 237.10073,43.0878378 C237.197336,42.8536024 237.350292,42.6441451 237.559605,42.4594595 C237.768918,42.2747739 238.04033,42.1250006 238.37385,42.0101351 C238.70737,41.8952697 239.111038,41.8378378 239.584867,41.8378378 L242,41.8378378 L242,48.6959459 Z M238.266894,43.8648649 C238.266894,44.225227 238.40145,44.5067557 238.670566,44.7094595 C238.939683,44.9121632 239.304249,45.0135135 239.764277,45.0135135 L240.751031,45.0135135 L240.751031,42.6959459 L239.619369,42.6959459 C239.361753,42.6959459 239.146693,42.7319816 238.974183,42.8040541 C238.801673,42.8761265 238.663666,42.9673418 238.56016,43.0777027 C238.456654,43.1880636 238.381901,43.3130624 238.335898,43.4527027 C238.289895,43.592343 238.266894,43.7297291 238.266894,43.8648649 Z" fill="#000000"></path>

<path d="M5.94786831,10.7850422 L6.41867219,14.0327142 L7.00545121,17.1969675 L7.67092766,20.3230462 L8.53107667,23.4109502 L8.96184151,24.8135147 L9.43126473,26.2966701 L10.4888476,29.3011555 L11.0355876,30.7843109 L11.6237473,32.1868753 L12.2105263,33.5102628 L12.8359637,34.6724684 L12.7186079,33.791624 L12.5625937,32.9885427 L12.2892237,31.5463897 L12.0144731,30.2654186 L11.7797615,29.022622 L11.6237473,27.6582322 L11.5450499,26.9371557 L11.5063915,26.1369022 L11.5063915,25.25323 L11.5450499,24.2917946 L11.5837083,23.2511823 L11.6624057,22.0465604 L11.8584589,20.2438691 L12.0931705,18.6009458 L12.4452379,17.0796158 L12.7973053,15.6360489 L13.6974934,12.7913315 L14.1669166,11.3477646 L14.6763789,9.78543221 L13.5801376,10.1473843 L12.5239353,10.6662766 L10.6062034,11.7493053 L10.0967412,11.8708985 L9.54862053,11.8298962 L8.96184151,11.7111306 L8.3364041,11.5089464 L7.08276798,11.0692311 L6.49598895,10.867047 L5.94786831,10.7850422 Z M4.42224285,45.2920872 L5.98790735,45.6130369 L7.47487443,45.8943981 L10.4101502,46.3751158 L13.345426,46.8176588 L14.9497489,46.9774267 L16.5941108,47.0961923 L17.1422314,47.1371947 L17.8063272,47.1753693 L18.5118427,47.1753693 L19.294675,47.2163717 L20.9763146,47.2545463 L22.7380323,47.2955487 L24.459711,47.2545463 L26.0654146,47.1739554 L26.8082078,47.0933645 L27.4350258,47.0127736 L27.9817658,46.8911803 L28.4525697,46.7724148 L27.0429194,46.5730584 L25.7119665,46.3708742 L24.4210526,46.0895129 L23.1687972,45.8109795 L21.9938585,45.5296183 L20.8989978,45.2086685 L18.8238711,44.487592 L16.9848366,43.7636878 L15.3018163,42.9634343 L13.8148492,42.1631807 L12.4838963,41.3205109 L11.3489966,40.5202574 L10.2927944,39.7581785 L9.39260635,38.9960997 L8.6097741,38.3174394 L7.94429765,37.754717 L7.35751863,37.2739993 L6.84805637,36.8738726 L6.37863315,36.6335137 L6.37863315,36.8356979 L6.41867219,37.0760568 L6.45733057,37.7165423 L6.53602799,38.4786212 L6.6533838,39.321291 L6.73070056,40.0805421 L6.7707396,40.8044464 L6.80939799,41.3233387 L6.80939799,41.5255229 L6.80939799,41.6442884 L6.6533838,42.0444152 L6.41867219,42.4473697 L6.06522412,42.887085 L5.7131567,43.3706304 L4.93032445,44.2896495 L4.65695446,44.8113695 L4.42224285,45.2920872 Z M51.3866552,37.0350544 L51.8560785,36.5161621 L52.2081459,36.0326166 L52.5215549,35.5929014 L52.7162275,35.1927746 L53.0696755,34.4716981 L53.3043872,33.8693872 L53.5390988,33.3476671 L53.9698636,32.9051241 L54.2432336,32.7057676 L54.595301,32.5035834 L55.0647242,32.304227 L55.6515032,32.1444591 L56.9051394,31.8235093 L57.4919184,31.6213251 L58,31.3809663 L56.1609655,29.0169665 L53.4990597,26.2500122 L50.6811398,23.5664765 L47.745864,21.0427088 L46.2588969,19.8380869 L44.7332714,18.7168836 L44.1851508,18.3139291 L43.5583327,17.8742138 L42.1887215,16.8717761 L40.7404128,15.9499293 L40.076317,15.5498025 L39.4881573,15.2712691 L40.4670428,16.1902881 L41.4058892,17.1545512 L43.0889095,18.996831 L44.5372182,20.8419385 L45.8281321,22.6446297 L46.885715,24.4091463 L47.785903,26.1326605 L48.5687353,27.7755838 L49.1941727,29.2969139 L49.7036349,30.7404807 L50.0943607,32.1020428 L50.4077698,33.3066647 L50.6811398,34.3868656 L50.877193,35.3087124 L51.0732462,36.0707913 L51.2292604,36.630686 L51.3866552,37.0350544 Z M28.8046371,11.4665302 L30.5263158,11.6262981 L32.2479945,11.8666569 L33.9310148,12.1876067 L35.5753767,12.546731 L37.218358,12.9496855 L38.7840225,13.4685778 L40.2709895,14.0313003 L41.7192982,14.7099605 L42.8541979,15.272683 L43.8717418,15.7915753 L44.8105882,16.3132953 L45.5934205,16.8321876 L46.3375943,17.2747306 L47.0030708,17.7554483 L47.5898498,18.1584028 L48.1379704,18.5585296 L49.0381585,19.3177807 L49.8209907,19.9992687 L50.563784,20.5619911 L51.3466162,21.0808834 L51.3079578,20.6001658 L51.2292604,19.9186778 L51.1119046,19.1594266 L50.9945488,18.3139291 L50.917232,17.554678 L50.7984956,16.8307737 L50.7598372,16.3118814 L50.7598372,16.1096972 L50.7598372,15.9909317 L50.877193,15.669982 L51.1119046,15.2698552 L51.4253136,14.7891375 L51.8160394,14.2674175 L52.5988717,13.1843889 L52.9122807,12.7036712 L53.1083339,12.3007167 L50.0557023,11.740822 L46.9644124,11.3011067 L43.8330834,11.0197455 L40.663096,10.8175613 L40.076317,10.8175613 L39.4108405,10.7793867 L37.8838344,10.7793867 L36.2408532,10.8175613 L34.5578328,10.8585637 L32.8748125,10.9391546 L31.2704897,11.0607479 L30.5649742,11.1413388 L29.8994977,11.2219297 L29.3127187,11.3406952 L28.8046371,11.4665302 Z M0,27.8590025 L0.821490633,28.8996148 L1.80037611,29.9826435 L2.89523673,31.1038467 L4.0301364,32.22505 L5.2050751,33.3109063 L6.37863315,34.3515187 L7.47487443,35.312954 L8.49241829,36.1966262 L8.92318313,36.5557506 L9.43126473,36.9982936 L10.0180438,37.4408366 L10.6448618,37.9215543 L11.9758147,38.9621666 L13.4241234,40.002779 L14.8710514,41.0052167 L16.2807018,41.9270635 L16.9461782,42.3271903 L17.5716156,42.6891424 L18.1597753,42.9676759 L18.6678569,43.2080347 L18.2771311,42.807908 L17.8463663,42.3681927 L16.8288224,41.4039296 L15.6939227,40.2827263 L15.1057631,39.6422407 L14.4803256,38.9607528 L13.3067676,37.4775974 L12.2491847,35.994442 L11.3103383,34.552289 L10.4888476,33.1087221 L9.78333214,31.7061577 L9.15789474,30.3827702 L8.6097741,29.0593828 L8.17900926,27.8575886 L7.74824442,26.695383 L7.43621605,25.6547706 L7.1614654,24.7329238 L6.92675379,23.890254 L6.73070056,23.208766 L6.57468638,22.6064551 L6.41867219,22.2063283 L6.30131638,21.9659695 L5.63583994,22.9302326 L5.0877193,23.9326703 L4.61829608,24.9322802 L4.10883382,25.8965433 L3.75676641,26.2966701 L3.28734319,26.5780313 L2.70056416,26.7773877 L2.0737461,26.9371557 L1.4483087,27.0969236 L0.900188055,27.2991078 L0.390725797,27.5394666 L0,27.8590025 Z M29.3127187,53.5081176 L29.5087719,53.6678855 L29.7434835,53.7894788 L30.3302626,53.991663 L30.9170416,54.1104286 L31.4651622,54.1910195 L31.7399129,54.2320218 L32.0533219,54.2701965 L32.8748125,54.3917898 L33.6576448,54.5105553 L33.9696732,54.5911462 L34.1657264,54.6717371 L34.400438,54.8739213 L34.713847,55.2330457 L35.0272561,55.7165911 L35.3793235,56.2354834 L36.0447999,57.2789235 L36.358209,57.7186388 L36.6702373,58 L36.9049489,57.7186388 L37.1796996,57.318512 L37.4530696,56.8377944 L37.805137,56.2354834 L38.118546,55.5539954 L38.5106525,54.8329189 L39.2534457,53.230998 L39.9575805,51.5880747 L40.623057,50.0639169 L40.936466,49.3428404 L41.2112166,48.7023548 L41.4058892,48.1424601 L41.6019424,47.6999171 L42.1114047,46.3355273 L42.6194863,44.8551996 L43.5983718,41.729121 L44.4585208,38.5196236 L44.7719298,36.9572912 L45.0466805,35.4359612 L44.8892856,35.67632 L44.6932324,35.9576812 L44.3025066,36.7579348 L43.9104002,37.6006046 L43.5583327,38.321681 L42.5808279,40.1243723 L41.6019424,41.7672956 L40.5457402,43.2886256 L39.4108405,44.7321925 L38.2359018,46.0937546 L36.9836464,47.417142 L35.6526935,48.700941 L34.2057654,49.9819121 L33.0308267,50.903759 L31.8172296,51.7464287 L30.6050132,52.5862708 L29.3127187,53.5081176 Z M42.8155395,48.9398859 L43.8717418,48.4973429 L44.8506272,48.0547999 L46.7683592,47.0933645 L47.2764408,46.974599 L47.8245614,46.974599 L48.4113404,47.0933645 L49.0381585,47.2955487 L50.2517556,47.7762664 L50.8385346,48.0166252 L51.4253136,48.1763932 L51.4253136,47.1739554 L51.3466162,46.0909268 L51.2292604,44.9287212 L51.0732462,43.7665155 L50.6424814,41.3219248 L50.0943607,38.7981571 L49.4689233,36.2715616 L48.8034469,33.8693872 L48.1379704,31.5859783 L47.8245614,30.5425382 L47.5111524,29.5811028 L46.9644124,28.137536 L46.3762527,26.7349715 L45.7894737,25.3734094 L45.2813921,24.0896105 L45.3987479,25.0114573 L45.5161037,25.8145385 L45.7508153,27.2976939 L45.9855269,28.659256 L46.1815801,29.9430549 L46.2989359,31.3456194 L46.3375943,32.0666959 L46.3375943,32.906538 L46.2989359,33.7902101 L46.2588969,34.7926478 L46.1415411,35.9138511 L46.0241853,37.118473 L45.8681711,38.1986739 L45.7107763,39.3227049 L45.2026947,41.6867047 L44.5758766,43.9701136 L44.2238092,45.0941446 L43.8330834,46.134757 L43.7157276,46.4132904 L43.5583327,46.7752426 L43.2463044,47.5373214 L42.9715537,48.337575 L42.8541979,48.6585247 L42.8155395,48.9398859 Z M18.9812659,14.5134318 L20.9763146,13.4304032 L22.8167297,12.5085564 L24.6171059,11.6687143 L26.417482,10.9448101 L28.2951748,10.3424991 L30.2916042,9.86178148 L31.3478064,9.62142265 L32.4440477,9.46165472 L33.6176058,9.30188679 L34.8698612,9.1802935 L36.7489348,9.10253035 L38.6666667,9.10253035 L42.5808279,9.26229828 L42.4234331,8.98093706 L42.1500631,8.61898493 L41.7979957,8.13826727 L41.4058892,7.65754961 L40.976505,7.17683194 L40.5843986,6.73428892 L40.2323312,6.37516455 L39.9575805,6.13480571 L39.5668547,5.7318512 L39.3321431,5.29213593 L39.2147873,4.8495929 L39.1761289,4.36887524 L39.2147873,3.76656428 L39.2534457,3.08790405 L39.2934847,2.20423188 L39.2934847,1.16361952 L39.0587731,1.20179416 L38.7840225,1.24279655 L38.0798876,1.48315538 L37.218358,1.8451075 L36.2795115,2.28482278 L35.2233093,2.88713373 L34.0483706,3.52761933 L32.8748125,4.20910731 L31.6612155,4.97118619 L29.1953629,6.53210472 L28.0218049,7.335186 L26.9255636,8.09726488 L25.9080197,8.81834138 L24.9691733,9.45882697 L24.186341,10.0611379 L23.559523,10.5418556 L23.2474946,10.7822144 L22.9727439,10.9843986 L22.3859649,11.3845254 L18.9812659,14.5134318 Z M14.6763789,48.5369314 L17.1422314,51.7874311 L17.4156014,52.02779 L17.6116546,52.2271464 L17.8850246,52.5480961 L17.923683,52.7502803 L17.923683,52.9906392 L17.923683,53.3497635 L17.8850246,53.8714836 L17.7676688,55.3956414 L17.7676688,56.1548925 L17.8463663,56.8787967 L20.6242472,55.5949978 L22.0338975,54.9926869 L23.4421672,54.3111989 L25.0865291,53.4303544 L26.6121545,52.54951 L28.0604632,51.7068402 L29.4701135,50.8259958 L32.2093361,49.0233046 L33.6176058,48.0208669 L35.0659144,46.9378382 L38.5879692,43.9333528 L36.2008141,45.135147 L33.8523174,46.259178 L32.6000619,46.7780703 L31.2704897,47.258788 L29.822181,47.701331 L28.2951748,48.0604554 L27.004261,48.3008142 L25.8693613,48.5029984 L24.8904759,48.6627663 L23.9516294,48.7843596 L23.1301388,48.8649505 L22.3859649,48.9059529 L21.0163536,48.9059529 L19.6854007,48.8225342 L18.3157895,48.7037687 L17.5329572,48.6627663 L16.6714276,48.6245917 L15.7325811,48.5835893 L14.6763789,48.5369314 Z M12.5239353,23.208766 L12.5625937,23.0489981 L12.6412912,22.7704646 L12.758647,22.4891034 L12.9146611,22.0889766 L13.3067676,21.2463069 L13.7761908,20.32446 L14.2842724,19.3630247 L14.7536956,18.5203549 L14.9497489,18.1612306 L15.1057631,17.8374531 L15.2631579,17.5970942 L15.3805137,17.3977378 L16.476755,15.7929891 L17.5716156,14.3098337 L18.6678569,12.9482717 L19.7640982,11.7436497 L20.8589588,10.6606211 L21.9165417,9.6991858 L22.9727439,8.81834138 L23.9516294,8.05626249 L24.8904759,7.37760226 L25.7520055,6.77246356 L26.5348378,6.25357125 L27.2389726,5.77285359 L27.8257516,5.37272683 L28.2951748,5.0517771 L28.6472423,4.73082736 L28.8819539,4.49046853 L28.7645981,4.44946614 L28.5298865,4.40846375 L28.2565165,4.37028911 L27.9431074,4.28969821 L27.2003142,4.12993028 L26.3387845,3.92774609 L25.5172939,3.72838964 L24.8117784,3.56862172 L24.4997501,3.48803081 L24.3036968,3.44702842 L24.1476826,3.40602603 L24.0689852,3.3678514 L23.872932,3.20808347 L23.6382204,2.8489591 L23.3248113,2.36541368 L22.9727439,1.84652138 L22.2686091,0.76349276 L21.9938585,0.320949734 L21.7204885,0 L21.4857769,0.202184194 L21.2124069,0.602310955 L20.8589588,1.08302862 L20.5068914,1.68251182 L20.1161656,2.3639998 L19.7240591,3.16425333 L18.8639101,4.84817903 L18.0410388,6.57169324 L17.2982456,8.21461655 L16.9461782,8.97669543 L16.6714276,9.61718102 L16.4367159,10.1770757 L16.2420434,10.6196187 L16.0459901,11.1003364 L15.8112785,11.7026474 L15.5765669,12.4237239 L15.2631579,13.1858027 L14.6763789,14.9474916 L14.0495608,16.8307737 L13.4627818,18.7168836 L13.1894118,19.6387304 L12.9933586,20.4785725 L12.7973053,21.3212423 L12.6412912,22.0423188 L12.5625937,22.6856321 L12.5239353,23.208766 Z" fill="#000000" fill-rule="nonzero"></path>

<path d="M51.3866552,37.0350544 L51.2292604,36.630686 L51.0732462,36.0707913 L50.877193,35.3087124 L50.6811398,34.3868656 L50.4077698,33.3066647 L50.0943607,32.1020428 L49.7036349,30.7404807 L49.1941727,29.2969139 L48.5687353,27.7755838 L47.785903,26.1326605 L46.885715,24.4091463 L45.8281321,22.6446297 L44.5372182,20.8419385 L43.0889095,18.996831 L41.4058892,17.1545512 L40.4670428,16.1902881 L39.4881573,15.2712691 L40.076317,15.5498025 L40.7404128,15.9499293 L42.1887215,16.8717761 L43.5583327,17.8742138 L44.1851508,18.3139291 L44.7332714,18.7168836 L46.2588969,19.8380869 L47.745864,21.0427088 L50.6811398,23.5664765 L53.4990597,26.2500122 L56.1609655,29.0169665 L58,31.3809663 L57.4919184,31.6213251 L56.9051394,31.8235093 L55.6515032,32.1444591 L55.0647242,32.304227 L54.595301,32.5035834 L54.2432336,32.7057676 L53.9698636,32.9051241 L53.5390988,33.3476671 L53.3043872,33.8693872 L53.0696755,34.4716981 L52.7162275,35.1927746 L52.5215549,35.5929014 L52.2081459,36.0326166 L51.8560785,36.5161621 L51.3866552,37.0350544 Z M28.8046371,11.4665302 L29.3127187,11.3406952 L29.8994977,11.2219297 L30.5649742,11.1413388 L31.2704897,11.0607479 L32.8748125,10.9391546 L34.5578328,10.8585637 L36.2408532,10.8175613 L37.8838344,10.7793867 L39.4108405,10.7793867 L40.076317,10.8175613 L40.663096,10.8175613 L43.8330834,11.0197455 L46.9644124,11.3011067 L50.0557023,11.740822 L53.1083339,12.3007167 L52.9122807,12.7036712 L52.5988717,13.1843889 L51.8160394,14.2674175 L51.4253136,14.7891375 L51.1119046,15.2698552 L50.877193,15.669982 L50.7598372,15.9909317 L50.7598372,16.1096972 L50.7598372,16.3118814 L50.7984956,16.8307737 L50.917232,17.554678 L50.9945488,18.3139291 L51.1119046,19.1594266 L51.2292604,19.9186778 L51.3079578,20.6001658 L51.3466162,21.0808834 L50.563784,20.5619911 L49.8209907,19.9992687 L49.0381585,19.3177807 L48.1379704,18.5585296 L47.5898498,18.1584028 L47.0030708,17.7554483 L46.3375943,17.2747306 L45.5934205,16.8321876 L44.8105882,16.3132953 L43.8717418,15.7915753 L42.8541979,15.272683 L41.7192982,14.7099605 L40.2709895,14.0313003 L38.7840225,13.4685778 L37.218358,12.9496855 L35.5753767,12.546731 L33.9310148,12.1876067 L32.2479945,11.8666569 L30.5263158,11.6262981 L28.8046371,11.4665302 Z M18.9812659,14.5134318 L22.3859649,11.3845254 L22.9727439,10.9843986 L23.2474946,10.7822144 L23.559523,10.5418556 L24.186341,10.0611379 L24.9691733,9.45882697 L25.9080197,8.81834138 L26.9255636,8.09726488 L28.0218049,7.335186 L29.1953629,6.53210472 L31.6612155,4.97118619 L32.8748125,4.20910731 L34.0483706,3.52761933 L35.2233093,2.88713373 L36.2795115,2.28482278 L37.218358,1.8451075 L38.0798876,1.48315538 L38.7840225,1.24279655 L39.0587731,1.20179416 L39.2934847,1.16361952 L39.2934847,2.20423188 L39.2534457,3.08790405 L39.2147873,3.76656428 L39.1761289,4.36887524 L39.2147873,4.8495929 L39.3321431,5.29213593 L39.5668547,5.7318512 L39.9575805,6.13480571 L40.2323312,6.37516455 L40.5843986,6.73428892 L40.976505,7.17683194 L41.4058892,7.65754961 L41.7979957,8.13826727 L42.1500631,8.61898493 L42.4234331,8.98093706 L42.5808279,9.26229828 L38.6666667,9.10253035 L36.7489348,9.10253035 L34.8698612,9.1802935 L33.6176058,9.30188679 L32.4440477,9.46165472 L31.3478064,9.62142265 L30.2916042,9.86178148 L28.2951748,10.3424991 L26.417482,10.9448101 L24.6171059,11.6687143 L22.8167297,12.5085564 L20.9763146,13.4304032 L18.9812659,14.5134318 Z M12.5239353,23.208766 L12.5625937,22.6856321 L12.6412912,22.0423188 L12.7973053,21.3212423 L12.9933586,20.4785725 L13.1894118,19.6387304 L13.4627818,18.7168836 L14.0495608,16.8307737 L14.6763789,14.9474916 L15.2631579,13.1858027 L15.5765669,12.4237239 L15.8112785,11.7026474 L16.0459901,11.1003364 L16.2420434,10.6196187 L16.4367159,10.1770757 L16.6714276,9.61718102 L16.9461782,8.97669543 L17.2982456,8.21461655 L18.0410388,6.57169324 L18.8639101,4.84817903 L19.7240591,3.16425333 L20.1161656,2.3639998 L20.5068914,1.68251182 L20.8589588,1.08302862 L21.2124069,0.602310955 L21.4857769,0.202184194 L21.7204885,1.77635684e-15 L21.9938585,0.320949734 L22.2686091,0.76349276 L22.9727439,1.84652138 L23.3248113,2.36541368 L23.6382204,2.8489591 L23.872932,3.20808347 L24.0689852,3.3678514 L24.1476826,3.40602603 L24.3036968,3.44702842 L24.4997501,3.48803081 L24.8117784,3.56862172 L25.5172939,3.72838964 L26.3387845,3.92774609 L27.2003142,4.12993028 L27.9431074,4.28969821 L28.2565165,4.37028911 L28.5298865,4.40846375 L28.7645981,4.44946614 L28.8819539,4.49046853 L28.6472423,4.73082736 L28.2951748,5.0517771 L27.8257516,5.37272683 L27.2389726,5.77285359 L26.5348378,6.25357125 L25.7520055,6.77246356 L24.8904759,7.37760226 L23.9516294,8.05626249 L22.9727439,8.81834138 L21.9165417,9.6991858 L20.8589588,10.6606211 L19.7640982,11.7436497 L18.6678569,12.9482717 L17.5716156,14.3098337 L16.476755,15.7929891 L15.3805137,17.3977378 L15.2631579,17.5970942 L15.1057631,17.8374531 L14.9497489,18.1612306 L14.7536956,18.5203549 L14.2842724,19.3630247 L13.7761908,20.32446 L13.3067676,21.2463069 L12.9146611,22.0889766 L12.758647,22.4891034 L12.6412912,22.7704646 L12.5625937,23.0489981 L12.5239353,23.208766 Z" id="logo-color" fill="#D8362A"></path>
</svg>
